<?xml version="1.0" standalone="no"?>
<!DOCTYPE svg PUBLIC "-//W3C//DTD SVG 20010904//EN"
 "http://www.w3.org/TR/2001/REC-SVG-20010904/DTD/svg10.dtd">
<svg version="1.0" xmlns="http://www.w3.org/2000/svg"
 width="2048.000000pt" height="2060.000000pt" viewBox="0 0 2048.000000 2060.000000"
 preserveAspectRatio="xMidYMid meet">
<metadata>
Created by potrace 1.16, written by Peter Selinger 2001-2019
</metadata>
<g transform="translate(0.000000,2060.000000) scale(0.100000,-0.100000)"
fill="#000000" stroke="none">
<path d="M12110 16563 c-19 -1 -87 -8 -150 -14 -401 -36 -833 -135 -1269 -289
-228 -80 -412 -160 -651 -280 -244 -123 -377 -200 -705 -405 -354 -221 -475
-289 -720 -410 -513 -252 -1051 -440 -1790 -624 -497 -124 -819 -180 -1250
-216 -473 -40 -629 -85 -1200 -350 -274 -128 -404 -178 -735 -285 -463 -150
-666 -239 -900 -395 -493 -328 -814 -780 -934 -1317 -45 -202 -60 -344 -60
-583 0 -246 10 -334 75 -655 82 -410 54 -531 -208 -883 -106 -143 -159 -238
-200 -356 -74 -219 -82 -458 -22 -701 43 -173 93 -240 179 -240 42 0 54 5 86
35 l37 35 -6 -127 c-6 -150 -30 -249 -82 -354 -53 -105 -112 -184 -196 -264
-90 -84 -109 -110 -109 -153 0 -71 52 -122 124 -122 97 0 412 141 576 257 134
95 311 275 393 398 226 342 329 735 314 1195 -10 280 -49 490 -149 800 -116
361 -148 539 -148 828 0 437 90 784 271 1047 57 84 135 163 124 127 -145 -482
-127 -971 66 -1822 63 -273 125 -518 185 -723 119 -407 154 -603 154 -845 0
-149 -18 -295 -50 -422 -65 -255 -168 -441 -353 -638 -224 -238 -232 -264
-188 -674 50 -460 55 -560 54 -1068 -1 -733 -26 -957 -138 -1243 -34 -88 -45
-129 -45 -172 0 -112 65 -173 201 -190 31 -4 62 -11 70 -16 11 -6 15 -46 19
-171 5 -150 7 -168 32 -221 34 -72 118 -156 190 -190 93 -44 146 -49 533 -45
348 3 362 4 417 26 95 38 146 117 135 210 -7 59 -105 256 -198 398 -121 182
-174 317 -215 539 -25 137 -26 526 -1 737 51 431 144 779 261 979 33 56 104
138 272 315 264 279 351 385 611 744 105 146 205 281 222 300 l30 35 1 -48 c0
-71 -19 -229 -41 -339 -26 -132 -66 -251 -133 -393 -85 -185 -95 -311 -36
-467 11 -32 97 -173 189 -315 270 -416 406 -649 567 -975 57 -115 117 -245
133 -288 74 -190 116 -385 130 -597 11 -163 19 -184 82 -215 26 -14 59 -18
145 -18 134 0 141 -5 155 -106 27 -196 42 -238 112 -306 23 -23 76 -57 117
-77 l75 -36 445 0 445 0 45 25 c107 60 134 167 72 287 -43 84 -191 317 -262
411 -31 43 -99 124 -150 182 -204 232 -280 342 -409 599 -196 388 -272 578
-340 848 -50 203 -66 326 -58 467 11 190 43 292 185 586 101 208 215 497 282
710 28 91 58 186 66 213 10 28 22 47 30 47 31 0 670 -322 767 -386 121 -81
281 -233 342 -324 50 -75 86 -163 105 -254 17 -83 51 -116 119 -116 42 0 56 5
86 31 46 41 108 170 135 279 28 117 28 303 0 419 -11 46 -18 86 -16 89 8 8
508 31 671 32 174 0 436 -21 615 -50 224 -37 584 -124 615 -150 28 -23 49
-158 49 -305 0 -149 -11 -235 -50 -407 -31 -137 -31 -168 2 -207 52 -62 145
-58 301 14 42 19 79 35 83 35 4 0 1 -35 -6 -77 -58 -327 -23 -684 87 -904 40
-81 110 -110 179 -74 33 17 42 32 66 101 16 50 71 144 83 144 11 0 100 -370
112 -465 20 -166 -4 -387 -92 -831 -68 -342 -69 -361 -18 -419 39 -44 84 -58
172 -54 l72 4 1 -115 c2 -173 42 -279 142 -372 61 -57 112 -84 199 -104 101
-23 804 -16 881 10 113 37 170 141 137 251 -15 51 -188 362 -296 532 -33 52
-69 115 -81 141 -98 226 -166 584 -155 827 7 163 27 252 103 441 78 196 101
282 116 437 6 64 14 114 18 110 4 -4 17 -39 30 -78 38 -118 84 -221 187 -425
55 -107 112 -233 126 -280 65 -206 61 -469 -13 -897 -17 -94 -30 -195 -30
-223 0 -107 73 -164 200 -159 55 3 73 0 80 -11 5 -8 10 -54 10 -102 0 -191 61
-320 191 -407 107 -71 142 -76 584 -76 l390 0 50 25 c91 46 136 149 105 246
-28 90 -232 437 -327 556 -93 117 -135 220 -192 472 -46 201 -64 359 -58 511
7 170 26 263 97 476 52 155 62 201 89 387 57 386 112 657 147 709 8 13 47 39
87 59 179 90 328 208 464 368 104 121 153 196 241 363 52 101 67 123 73 107
85 -212 102 -234 176 -234 76 0 99 22 203 197 210 349 328 460 503 470 40 3
84 0 99 -6 16 -6 47 -39 76 -83 115 -171 201 -365 257 -581 19 -71 41 -139 49
-153 25 -38 72 -57 125 -51 65 7 93 45 138 185 20 61 40 112 44 112 13 0 54
-86 79 -165 17 -54 24 -103 27 -211 5 -130 3 -150 -21 -244 -30 -118 -26 -155
25 -190 61 -44 156 -17 351 99 433 258 637 586 665 1072 l6 106 126 6 c145 6
216 23 321 74 93 45 192 141 241 232 l34 64 84 27 c133 45 195 94 313 250 35
47 94 124 130 171 116 152 159 277 138 403 -12 77 -24 112 -75 222 l-42 91 -6
304 c-4 241 -9 333 -26 443 -28 177 -88 413 -141 552 -58 152 -57 173 13 320
83 173 100 247 101 424 0 115 -5 166 -22 247 -27 118 -83 291 -136 414 l-37
86 44 64 c333 479 307 1185 -64 1729 -109 160 -320 362 -423 405 -60 25 -130
2 -154 -51 -24 -52 -14 -96 48 -216 64 -123 108 -245 136 -373 21 -97 24 -322
5 -410 -31 -150 -104 -314 -164 -374 l-34 -32 -84 45 c-46 25 -122 61 -169 81
-46 20 -86 38 -88 39 -2 2 6 19 17 37 13 22 21 51 21 81 0 80 -57 127 -260
213 -373 158 -718 192 -1129 109 -136 -27 -169 -40 -201 -81 -46 -59 -1 -164
77 -179 19 -4 61 1 97 10 240 60 545 69 752 21 73 -17 174 -54 174 -64 0 -4
-98 -32 -217 -63 -258 -67 -328 -91 -367 -130 -26 -26 -28 -34 -24 -80 4 -42
11 -57 37 -80 43 -38 89 -37 202 7 120 46 200 59 329 52 331 -18 673 -169 906
-402 208 -208 411 -607 474 -931 39 -202 23 -311 -76 -524 l-59 -125 1 -105
c0 -98 3 -114 46 -240 95 -277 139 -485 157 -750 12 -174 2 -433 -18 -453 -9
-9 -50 -11 -144 -7 -73 2 -188 4 -257 4 -116 1 -128 -1 -175 -26 -55 -28 -123
-96 -151 -149 -29 -55 -31 -181 -4 -251 29 -78 102 -156 188 -201 60 -32 71
-42 92 -87 33 -70 70 -100 123 -100 24 0 56 8 73 19 64 39 94 161 58 237 -24
51 -64 79 -156 109 -104 35 -135 57 -160 112 -16 37 -18 49 -8 73 18 44 59 56
175 50 162 -7 347 -6 393 3 l42 9 26 -55 c34 -77 41 -145 20 -202 -19 -50
-275 -391 -320 -426 -57 -45 -152 -71 -274 -77 -175 -7 -303 21 -590 129 -56
22 -117 39 -136 39 -42 0 -81 -30 -96 -76 -25 -74 10 -121 123 -164 45 -17
122 -47 170 -66 96 -38 251 -78 343 -90 l58 -7 -38 -33 c-68 -59 -134 -78
-266 -79 -129 0 -172 11 -354 91 -112 50 -164 55 -225 25 -75 -39 -140 -141
-178 -281 -14 -54 -17 -101 -15 -270 2 -216 -8 -352 -34 -460 -18 -71 -78
-210 -91 -210 -4 0 -9 37 -11 81 -5 134 -39 243 -145 459 -52 107 -109 229
-126 270 -17 41 -37 82 -44 91 -36 47 -112 53 -158 11 -29 -26 -32 -34 -46
-152 -8 -69 -18 -128 -22 -133 -4 -4 -26 37 -50 90 -78 180 -191 352 -347 527
-236 264 -328 391 -431 594 -76 150 -135 327 -162 491 -24 142 -26 250 -9 443
14 161 5 195 -57 225 -32 15 -40 16 -77 3 -87 -31 -102 -95 -102 -425 0 -213
2 -239 27 -360 67 -313 194 -587 400 -860 33 -44 73 -95 89 -113 15 -18 28
-37 28 -41 0 -5 -16 -12 -35 -15 -19 -4 -71 -25 -117 -48 -67 -33 -101 -59
-173 -132 -50 -50 -121 -137 -159 -194 -38 -56 -72 -105 -77 -107 -9 -6 -35
76 -69 215 -24 99 -42 128 -95 154 -35 17 -42 18 -79 5 -56 -19 -77 -56 -131
-227 -97 -307 -226 -526 -421 -719 -68 -68 -128 -123 -135 -123 -7 0 -9 9 -6
23 16 64 37 307 31 355 -12 99 -89 154 -166 118 -35 -17 -44 -30 -143 -206
-91 -162 -225 -316 -369 -424 -132 -98 -325 -180 -505 -212 -102 -18 -391 -29
-476 -17 -56 8 -60 10 -56 33 1 14 31 124 66 245 34 121 73 269 86 328 l23
109 125 83 c335 221 598 511 785 865 364 691 478 1642 306 2562 -32 169 -116
494 -171 659 -105 316 -317 776 -374 810 -81 50 -185 -6 -185 -100 0 -18 30
-88 74 -173 356 -687 530 -1496 488 -2264 -29 -522 -124 -923 -307 -1300 -113
-233 -231 -401 -394 -565 -75 -75 -176 -166 -226 -203 l-90 -68 -6 169 c-12
312 -95 677 -204 894 -39 76 -117 93 -179 38 -54 -47 -55 -79 -8 -201 123
-313 174 -646 151 -984 -11 -175 -43 -339 -99 -519 -174 -553 -198 -664 -230
-1073 -11 -138 -26 -278 -35 -310 -8 -32 -41 -123 -74 -203 -113 -276 -136
-394 -128 -666 7 -261 60 -523 154 -757 41 -106 56 -132 179 -326 99 -156 194
-319 194 -332 0 -13 -679 -10 -725 3 -57 16 -99 51 -126 106 -20 40 -24 69
-29 198 -7 162 -18 206 -67 258 -30 31 -78 47 -142 47 l-44 0 6 33 c3 17 26
151 51 297 55 325 66 423 66 587 0 154 -17 267 -71 473 -30 113 -43 186 -48
270 -9 124 -16 147 -57 179 -65 51 -167 15 -293 -104 l-69 -65 -6 32 c-14 83
-17 242 -6 348 22 217 89 521 160 724 11 33 20 79 20 104 0 37 -6 50 -34 78
-27 27 -42 34 -74 34 -55 0 -90 -32 -143 -128 -61 -112 -119 -191 -191 -257
-73 -68 -75 -66 -59 57 14 102 14 335 1 453 -25 212 -68 362 -188 650 -102
246 -124 326 -125 455 -1 129 14 192 122 522 110 335 137 450 160 684 15 145
-2 194 -73 218 -46 16 -88 7 -122 -25 -26 -24 -26 -26 -49 -214 -23 -192 -57
-331 -150 -610 -46 -137 -94 -297 -106 -355 -24 -119 -28 -276 -9 -380 15 -80
69 -242 127 -380 61 -144 84 -210 72 -210 -6 0 -63 13 -127 29 -448 113 -832
147 -1377 122 -137 -6 -311 -12 -385 -12 -75 0 -154 -4 -175 -9 -95 -21 -111
-104 -45 -242 51 -107 72 -190 68 -273 l-3 -67 -43 61 c-93 132 -226 255 -402
371 -52 34 -286 157 -520 274 -401 201 -535 272 -810 431 -131 75 -336 177
-457 226 -46 18 -83 36 -83 39 0 12 127 109 213 164 178 111 347 157 501 137
219 -29 420 -122 696 -320 90 -65 111 -76 147 -76 49 0 86 29 103 82 26 76
-17 127 -210 255 -334 221 -529 292 -795 291 -143 0 -236 -16 -376 -64 -103
-35 -103 -35 -89 -9 27 51 124 334 155 454 86 334 109 513 110 866 0 297 -11
430 -56 670 -26 138 -37 170 -66 201 -67 73 -193 23 -193 -75 0 -20 11 -92 24
-159 90 -448 83 -900 -19 -1316 -77 -315 -180 -585 -312 -821 -89 -161 -165
-262 -337 -454 -81 -91 -208 -237 -280 -323 -201 -241 -269 -332 -625 -823
-155 -215 -259 -339 -493 -588 -105 -112 -211 -229 -235 -259 -160 -206 -287
-598 -342 -1053 -35 -285 -44 -443 -38 -629 13 -398 92 -656 286 -943 69 -103
131 -215 131 -237 0 -9 -83 -11 -343 -9 l-344 3 -41 28 c-69 45 -84 88 -93
258 -6 129 -10 153 -34 208 -35 76 -78 116 -153 137 -31 9 -58 18 -60 19 -2 2
12 56 32 122 71 241 99 430 115 783 24 519 6 1066 -51 1525 -29 236 -28 299 1
354 13 24 72 95 131 157 327 341 475 761 457 1294 -10 268 -28 369 -158 838
-156 569 -238 917 -283 1212 -100 649 -69 1003 122 1420 61 134 173 288 327
449 75 78 80 86 80 126 0 81 -71 135 -148 114 -39 -11 -221 -192 -297 -296
-30 -41 -64 -72 -100 -94 -30 -18 -80 -47 -110 -65 -80 -47 -241 -185 -310
-265 -197 -229 -318 -511 -377 -879 -14 -92 -18 -171 -18 -395 0 -384 23 -524
144 -897 33 -100 69 -219 80 -263 64 -253 88 -595 57 -820 -65 -464 -260 -824
-569 -1052 -33 -24 -62 -42 -64 -39 -3 2 2 17 10 33 23 44 57 150 74 228 9 45
17 177 23 375 9 346 21 434 76 570 44 106 42 142 -12 189 -42 38 -87 41 -135
8 -39 -25 -123 -184 -198 -369 -24 -60 -47 -108 -51 -108 -13 0 -23 163 -16
238 8 83 35 187 69 271 27 64 100 178 226 349 37 52 89 137 115 189 108 217
125 414 63 723 -64 315 -72 388 -72 675 1 226 4 277 24 390 84 472 311 860
677 1154 249 201 480 315 954 471 362 120 586 206 795 305 201 96 436 198 540
233 169 58 303 81 739 127 318 34 468 56 734 111 782 159 1540 398 2126 670
236 110 401 202 921 514 671 402 992 557 1460 705 480 151 905 223 1365 232
545 10 993 -69 1485 -262 342 -134 646 -308 945 -539 125 -96 451 -418 574
-566 98 -118 246 -333 246 -357 0 -9 -15 -34 -34 -57 -116 -142 -256 -397
-316 -574 -179 -531 -109 -1037 199 -1432 l50 -65 -107 -7 c-59 -4 -145 -15
-192 -24 -196 -37 -508 -164 -552 -225 -34 -45 -27 -107 20 -202 76 -153 205
-310 333 -407 160 -120 318 -178 516 -187 137 -7 236 6 341 41 186 63 247 127
209 219 -30 71 -111 86 -205 38 -189 -96 -447 -83 -640 31 -97 57 -257 222
-316 326 -5 9 15 23 68 47 165 77 383 113 576 95 138 -12 224 -31 387 -85 175
-58 237 -69 332 -62 162 13 337 96 431 205 92 108 149 260 157 422 6 120 -8
196 -57 296 -38 77 -92 127 -184 169 -39 18 -105 48 -146 67 -228 106 -336
269 -347 523 -8 182 31 357 134 595 103 239 228 425 446 662 99 109 107 121
107 158 0 32 -7 48 -34 78 -31 33 -39 37 -83 36 -148 -3 -614 -241 -831 -424
-40 -34 -74 -60 -76 -59 -183 261 -528 642 -751 830 -649 545 -1411 859 -2258
928 -116 10 -561 13 -647 4z m4053 -1834 c-132 -218 -238 -480 -284 -699 -16
-79 -22 -139 -22 -245 0 -172 19 -253 95 -405 45 -90 65 -118 143 -196 96 -96
159 -135 334 -204 46 -18 96 -44 111 -57 56 -47 79 -152 56 -262 -32 -151
-105 -255 -219 -307 -55 -26 -72 -29 -162 -29 -87 1 -109 4 -170 30 -213 89
-449 318 -555 539 -81 169 -110 304 -110 510 0 342 109 661 325 951 84 114
323 349 424 418 47 31 86 55 88 53 2 -1 -22 -45 -54 -97z m2573 -482 c129
-305 148 -624 54 -909 -25 -76 -100 -238 -111 -238 -3 0 -15 12 -24 28 -43 65
-135 182 -192 242 l-62 66 44 63 c91 130 157 282 191 441 15 66 19 127 19 277
0 222 -1 222 81 30z m-12873 -5388 c160 -59 303 -129 532 -261 294 -168 288
-164 280 -196 -18 -77 -123 -404 -167 -522 -70 -190 -118 -301 -208 -485 -145
-298 -183 -445 -183 -710 1 -386 102 -729 379 -1285 180 -360 286 -519 509
-760 74 -81 214 -277 314 -443 l23 -38 -375 3 -376 3 -31 30 c-34 33 -53 88
-70 210 -14 98 -36 151 -84 198 -57 57 -108 79 -202 85 l-83 5 -6 56 c-29 267
-42 333 -104 513 -58 166 -128 327 -235 533 -160 310 -268 491 -546 919 -147
227 -163 259 -163 340 1 51 7 76 43 150 149 313 229 738 199 1064 -11 123 -11
124 13 158 38 53 411 474 420 474 4 0 59 -19 121 -41z m11647 -234 c57 -29 54
-12 40 -206 -12 -162 -44 -297 -95 -399 -41 -82 -104 -180 -115 -180 -5 0 -3
17 2 38 5 20 13 179 17 352 6 264 10 321 24 354 33 76 49 81 127 41z m-3610
-1174 c0 -5 -11 -51 -25 -103 -29 -112 -75 -355 -116 -625 -36 -238 -46 -283
-99 -438 -92 -272 -115 -412 -107 -660 6 -185 26 -324 77 -520 67 -256 105
-341 240 -529 51 -70 130 -192 177 -270 l84 -141 -308 -3 c-338 -3 -388 2
-451 48 -63 45 -82 97 -91 247 -6 103 -12 137 -31 173 -41 83 -98 125 -185
137 -54 7 -53 -7 -20 218 36 253 47 438 36 591 -19 243 -55 363 -192 630 -118
231 -162 330 -195 442 -23 81 -56 262 -67 368 l-6 52 212 5 c133 3 247 11 307
22 127 22 305 82 426 143 100 51 252 152 294 197 24 26 40 32 40 16z"/>

<!-- Черта на теле -->
<path d="M9211 14625 c-41 -35 -55 -81 -39 -130 17 -50 54 -72 149 -85 339
-48 710 -243 920 -484 197 -226 330 -499 425 -871 21 -82 44 -160 51 -172 8
-12 30 -29 50 -38 46 -22 94 -13 133 26 26 26 30 38 30 82 0 59 -51 261 -105
417 -183 524 -497 898 -931 1110 -186 91 -465 170 -597 170 -45 0 -61 -5 -86
-25z"/>

<!-- бровь -->
<path d="M17060 12359 c-49 -11 -80 -50 -80 -101 0 -32 7 -47 33 -73 29 -29
41 -33 107 -40 147 -14 291 -64 394 -134 70 -49 131 -115 207 -227 79 -115
164 -195 263 -244 78 -39 125 -40 168 -1 28 25 33 36 33 74 0 56 -14 72 -115
131 -82 47 -92 59 -205 221 -147 210 -334 330 -590 379 -108 20 -173 25 -215
15z"/>

<!-- Глаз -->
<path d="M16880 11719 c-114 -24 -154 -42 -169 -75 -18 -41 -13 -74 18 -105
24 -23 38 -29 74 -29 l45 0 12 -67 c31 -182 161 -282 352 -271 65 4 91 11 148
40 l69 36 49 -49 c57 -57 94 -64 137 -26 37 31 35 77 -5 158 -112 223 -245
353 -405 395 -71 19 -214 16 -325 -7z m341 -191 c34 -18 76 -50 92 -70 29 -36
29 -38 13 -64 -41 -61 -173 -83 -234 -37 -68 50 -94 141 -52 183 32 32 105 27
181 -12z"/>

<!-- Черта на ляшке -->
<path d="M3321 7722 c-80 -84 -218 -317 -256 -433 -21 -61 -14 -108 20 -142
33 -32 77 -41 120 -23 40 17 53 36 95 139 18 42 69 132 113 198 121 180 122
181 92 239 -22 42 -53 60 -104 60 -38 0 -49 -5 -80 -38z"/>
</g>
</svg>
