<?xml version="1.0" encoding="utf-8"?>
<!-- Generator: Adobe Illustrator 27.5.0, SVG Export Plug-In . SVG Version: 6.00 Build 0)  -->
<svg version="1.1" xmlns="http://www.w3.org/2000/svg" xmlns:xlink="http://www.w3.org/1999/xlink" x="0px" y="0px"
	 viewBox="0 0 500 500" style="enable-background:new 0 0 500 500;" xml:space="preserve">
<!--<g id="BACKGROUND">-->
<!--	<rect style="fill:#FFFFFF;" width="500" height="500"/>-->
<!--</g>-->
<g id="OBJECTS">
	<ellipse style="opacity:0.12;fill:#542C48;" cx="250" cy="378.126" rx="209.01" ry="24.874"/>
	<g>
		<g>
			<g>
				<defs>
					<path id="XMLID_30_" d="M139.499,118.193c0,0-34.694,7.616-42.309,26.232c-7.616,18.616-41.04,12.693-49.079-6.769
						c-5.653-13.687,2.539-38.079,8.462-38.925c5.923-0.846-7.193,31.732,9.308,33.424C82.381,133.848,85.616,89,114.959,89
						C141.614,89,139.499,118.193,139.499,118.193z"/>
				</defs>
				<use xlink:href="#XMLID_30_"  style="overflow:visible;fill:#CDA884;"/>
				<clipPath id="XMLID_00000150074737025189571140000011774727685232753086_">
					<use xlink:href="#XMLID_30_"  style="overflow:visible;"/>
				</clipPath>
				<path style="clip-path:url(#XMLID_00000150074737025189571140000011774727685232753086_);fill:#BC9773;" d="M38.974,122.659
					c3.477,4.447,7.243,8.67,11.266,12.634c3.674,3.62,7.872,7.175,12.979,7.945c4.465,0.673,8.983-0.895,13.494-0.689
					c2.183,0.099,4.351,0.614,6.531,0.461c5.462-0.384,9.939-5.084,11.375-10.355c1.23-4.514,0.743-9.705,3.589-13.422
					c2.67-3.487,7.78-4.891,9.499-8.929c0.473-1.112,0.636-2.331,1.053-3.465c1.68-4.567,7.021-6.694,11.884-7.055
					c12.657-0.939,25.441,7.353,29.715,19.274c0.365,1.018,0.66,2.199,0.119,3.136c-0.617,1.069-2.015,1.33-3.233,1.541
					c-8.129,1.404-15.774,5.47-21.472,11.421c-4.35,4.543-7.56,10.104-12.119,14.44c-6.194,5.891-14.492,9.131-22.854,10.951
					c-7.828,1.704-16.007,2.275-23.851,0.647c-7.844-1.629-15.348-5.588-20.374-11.813"/>
				<path style="clip-path:url(#XMLID_00000150074737025189571140000011774727685232753086_);fill:#BC9773;" d="M75.748,118.817
					c0.388,2.349,1.69,4.535,3.569,5.996c1.258,0.978,3.375,1.48,4.229,0.136c0.586-0.922,0.167-2.127-0.263-3.131
					c-1.082-2.525-2.164-5.05-3.245-7.576c-0.472-1.101-0.378-3.001,0.803-2.798c1.313,1.473,2.801,2.918,4.694,3.476
					c1.893,0.558,4.271-0.073,5.099-1.864c0.783-1.693-0.048-3.705-1.183-5.186c-1.135-1.481-2.598-2.756-3.328-4.473
					c-0.73-1.717-0.358-4.133,1.374-4.827c2.293-0.919,4.383,1.775,5.067,4.149c0.43,1.493,0.93,3.297,2.421,3.735
					c1.136,0.334,2.385-0.39,2.971-1.419c0.586-1.029,0.634-2.279,0.514-3.458c-0.465-4.555-3.16-9.292-1.187-13.424
					c0.386-0.808,1.084-1.611,1.979-1.588c0.667,0.017,1.227,0.488,1.693,0.965c1.855,1.902,3.172,4.324,3.758,6.915
					c0.253,1.118,0.382,2.29,0.937,3.293c0.554,1.003,1.699,1.804,2.808,1.515c0.773-0.201,1.331-0.868,1.743-1.552
					c2.293-3.805,1.507-8.635,0.647-12.994c-0.255-1.292-0.654-2.773-1.86-3.304c-0.675-0.297-1.45-0.212-2.18-0.107
					c-5.186,0.749-10.263,2.247-15.025,4.433"/>
			</g>
			<path style="fill:#87444D;" d="M343.337,256.521c0,0-17.273,37.311,18.655,54.584c-10.364,19.346-28.329,48.366-28.329,48.366
				l13.879,3.596c0,0,23.2-36.429,33.105-50.58c4.837-6.909,2.073-11.055-0.691-17.964c-1.089-2.722,2.073-29.02,18.655-37.311
				C415.195,248.92,366.829,224.737,343.337,256.521z"/>
			<path style="fill:#87444D;" d="M159.017,233.246c0,0,15.47,67.368,33.868,87.014c0,16.651-1.789,38.608-1.789,38.608
				s6.437,12.045,11.782,8.042l2.025-10.372c0,0,3.292-22.595,7.494-31.786c2.488-5.442,1.475-9.353-3.823-18.814
				c-3.721-6.645,18.18-30.355,12.35-65.692"/>
			<path style="fill:#5A304D;" d="M202.878,366.91c0,0-6.772-9.294-12.158-7.858c-5.386,1.436-11.67,10.234-12.209,14.722
				c1.789,1.043,1.597,1.185,3.77,1.616c0.66,0.131,2.745-1.703,3.411-1.616c0.543,0.071,0.18,2.11,0.718,2.155
				c4.485,0.374,7.361,0.718,12.208,0C201.721,375.469,202.878,366.91,202.878,366.91z"/>
			<g>
				<defs>
					<path id="XMLID_31_" d="M122.927,190.19c-3.109,21.765,29.209,103.339,84.986,111.932
						c59.421,9.155,78.076-16.755,78.076-16.755s55.103,9.5,87.231-26.774c15.028,40.42,48.193,50.266,48.193,50.266l-11.919,66.848
						l12.902,1.315c2.492-6.675,5.395-13.845,12.749-41.734c5.518-20.926,14.87-34.616,13.732-40.938
						c-1.648-9.155-27.983-25.133-18.137-59.594c6.398-22.394-9.328-75.658-48.711-68.403
						c-39.384,7.255-75.313-20.901-108.478-29.192c-33.165-8.291-66.33,1.555-86.022,17.101
						C167.838,169.807,122.927,190.19,122.927,190.19z"/>
				</defs>
				<use xlink:href="#XMLID_31_"  style="overflow:visible;fill:#9B4E4D;"/>
				<clipPath id="XMLID_00000142879332563493598330000013505426631109995158_">
					<use xlink:href="#XMLID_31_"  style="overflow:visible;"/>
				</clipPath>
				<path style="clip-path:url(#XMLID_00000142879332563493598330000013505426631109995158_);fill:#87444D;" d="M196.857,159.962
					c5.7,9.328,6.644,23.749,4.169,34.829c-0.794,3.554-1.848,7.142-3.998,10.081c-1.827,2.497-4.354,4.395-6.974,6.041
					c-4.367,2.743-9.104,4.894-14.044,6.376c-5.694,1.708-11.7,2.55-17.035,5.172c-2.421,1.19-4.85,2.992-5.418,5.629
					c-0.358,1.662,0.09,3.38,0.535,5.021c1.891,6.979,3.842,14.092,7.828,20.125c1.541,2.333,3.363,4.466,5.18,6.591
					c4.148,4.853,8.296,9.707,12.444,14.56c13.068,15.29,35.582,17.597,55.691,17.164s36.05-14.461,53.863-23.802
					c3.627-1.902,21.928,5.061,25.253,5.802c12.856,2.864,26.401-3.078,35.937-12.163c9.536-9.085,15.819-20.977,21.933-32.642
					c0.426,14.843,0.941,30.107,6.86,43.725c0.763,1.756,1.633,3.628,1.261,5.505c-0.571,2.883-3.697,4.381-6.446,5.421
					c-31.206,11.806-63.501,20.73-96.34,26.623c-26.034,4.671-52.777,7.431-78.903,3.306c-26.126-4.126-51.782-15.722-68.896-35.889
					c-17.114-20.167-24.313-49.571-14.425-74.103c3.873-9.61,10.675-17.13,19.007-23.288
					C153.405,165.954,173.153,160.331,196.857,159.962z"/>
				<path style="clip-path:url(#XMLID_00000142879332563493598330000013505426631109995158_);fill:#A05756;" d="M228.862,123.317
					c-14.498,3.775-23.293,21.834-17.326,35.576c1.837,4.23,4.786,7.95,6.24,12.327c2.215,6.67,1.044,14.885,5.986,19.882
					c4.038,4.083,10.79,4.181,16.12,2.043c5.33-2.138,9.698-6.069,14.334-9.458c11.269-8.237,24.688-13.506,38.551-15.137
					c12.515-1.472,27.04,0.979,33.977,11.498c3.632,5.508,5.72,13.449,12.19,14.742c2.354,0.47,4.775-0.143,7.085-0.795
					c10.667-3.008,21.081-6.915,31.094-11.666c3.647-1.731,7.288-3.59,11.232-4.451c7.153-1.563,14.542,0.284,21.817,1.113
					c7.275,0.828,15.453,0.317,20.672-4.818c-18.469-14.177-39.545-24.947-61.856-31.607c-15.505-4.629-31.547-7.279-47.056-11.894
					c-22.059-6.565-44.742-17.208-67.077-11.654"/>
			</g>
			<path style="fill:#9B4E4D;" d="M200.473,242.573c0,0,15.47,67.368,33.867,87.014c0,16.651-1.789,38.608-1.789,38.608
				s6.438,12.045,11.782,8.042l2.025-10.371c0,0,3.292-22.596,7.494-31.786c2.488-5.442,1.475-9.353-3.823-18.814
				c-3.721-6.645,18.18-30.355,12.35-65.692"/>
			<path style="fill:#5A304D;" d="M244.334,376.237c0,0-6.772-9.294-12.158-7.858c-5.386,1.436-11.67,10.234-12.208,14.722
				c1.789,1.043,1.596,1.185,3.77,1.616c0.66,0.131,2.745-1.703,3.411-1.616c0.543,0.071,0.18,2.109,0.718,2.155
				c4.485,0.374,7.361,0.718,12.208,0C243.177,384.796,244.334,376.237,244.334,376.237z"/>
			<path style="fill:#5A304D;" d="M422.397,377.022c0,0-6.772-9.294-12.158-7.858c-5.386,1.436-11.67,10.234-12.209,14.722
				c1.789,1.043,1.596,1.185,3.77,1.616c0.66,0.131,2.745-1.703,3.411-1.616c0.543,0.071,0.18,2.109,0.718,2.154
				c4.485,0.374,7.361,0.718,12.208,0C421.24,385.581,422.397,377.022,422.397,377.022z"/>
			<path style="fill:#5A304D;" d="M347.944,362.121c0,0-6.772-9.294-12.158-7.858c-5.386,1.436-11.67,10.233-12.208,14.722
				c1.789,1.043,1.596,1.185,3.77,1.616c0.66,0.131,2.745-1.703,3.411-1.616c0.543,0.071,0.18,2.11,0.718,2.154
				c4.485,0.374,7.361,0.718,12.208,0C346.787,370.68,347.944,362.121,347.944,362.121z"/>
			<path style="fill:#9B4E4D;" d="M412.431,186.045c0,0,35.238-5.527,41.456,55.966c-2.764,2.764-4.146-0.691-4.146-0.691
				s-12.437-55.275-40.075-46.293"/>
			<path style="fill:#6E2D46;" d="M451.135,239.468c0,0-9.805,7.117-6.115,19.11c4.077,13.249-3.312,20.129,10.192,32.614
				c-1.019-7.389-0.552-17.381,2.548-22.677C463.875,258.069,461.072,242.781,451.135,239.468z"/>
			<g>
				<path style="fill:#9B4E4D;" d="M135.716,118.34c-22.214,0.333-48.599,17.973-50.682,43.434
					c-2.083,25.461-22.217,23.964-22.911,38.192c-0.694,14.228,24.994,38.941,46.516,33.699c21.522-5.242,37.49-23.964,37.49-23.964
					s32.63,11.982,46.516-11.233C206.532,175.253,185.704,117.591,135.716,118.34z"/>
			</g>
			<path style="fill:#87444D;" d="M182.6,145.906c0,0-14.19,34.931,22.7,45.501c11.191-21.968-2.062-41.304-2.062-41.304
				L182.6,145.906z"/>
			<path style="fill:#9B4E4D;" d="M184.88,148.807c0,0-0.622,28.807,20.31,39.169c5.596-13.264,3.109-27.978,3.109-27.978
				L184.88,148.807z"/>
			<path style="fill:#B16774;" d="M188.196,152.538c0,0,1.036,19.481,14.714,25.906c5.388-18.445,1.243-25.906,1.243-25.906H188.196
				z"/>
			<g>
				<defs>
					<path id="XMLID_29_" d="M136.816,118.938c0,0,24.874,1.382,34.547,16.583c9.673,15.201,33.856,40.074,62.876,32.474
						c29.779-7.799,14.51-55.966,12.437-55.966s-1.382,40.075-17.273,36.62C214.304,145.367,206.6,91.3,167.908,91.3
						C129.215,91.3,136.816,118.938,136.816,118.938z"/>
				</defs>
				<use xlink:href="#XMLID_29_"  style="overflow:visible;fill:#CDA884;"/>
				<clipPath id="XMLID_00000121969721880123306420000005871158197419604146_">
					<use xlink:href="#XMLID_29_"  style="overflow:visible;"/>
				</clipPath>
				<path style="clip-path:url(#XMLID_00000121969721880123306420000005871158197419604146_);fill:#BC9773;" d="M131.445,110.814
					c10.781-14.522,14.704-7.02,22.762-7.754c4.289-0.391,8.928-0.139,12.402,2.407c5.097,3.734,5.919,10.828,8.038,16.78
					c0.35,0.983,0.765,1.981,1.512,2.71c2.962,2.895,8.272-0.31,11.987,1.522c2.565,1.264,3.457,4.507,3.422,7.366
					c-0.035,2.859-0.706,5.756-0.089,8.548c1.056,4.784,5.504,7.927,9.61,10.598c7.502,4.878,15.566,9.932,24.514,9.937
					c11.142,0.005,20.67-7.788,28.341-15.869c1.756-1.85,4.518-3.867,6.547-2.321c0.614,0.468,0.986,1.184,1.273,1.9
					c1.826,4.553,0.887,9.902-1.659,14.094c-2.546,4.192-6.532,7.342-10.81,9.742c-13.771,7.725-30.881,8.15-45.932,3.377
					c-15.051-4.773-28.214-14.337-39.381-25.501c-3.623-3.622-7.128-7.476-11.538-10.083c-6.149-3.634-13.552-4.544-19.929-7.76"/>
				<path style="clip-path:url(#XMLID_00000121969721880123306420000005871158197419604146_);fill:#BC9773;" d="M194.834,89.358
					c-6.487,2.457-11.818,7.803-14.257,14.297c-0.436,1.162-0.626,2.78,0.47,3.362c0.658,0.349,1.463,0.111,2.16-0.152
					c4.283-1.618,8.276-3.998,11.735-6.997c2.633-2.283,5.158-5.03,8.561-5.78c5.611-1.238,10.751,3.456,13.932,8.24
					c0.739,1.111,1.452,2.291,1.646,3.612c0.194,1.32-0.254,2.819-1.398,3.507c-0.831,0.5-1.857,0.496-2.827,0.511
					c-6.892,0.112-13.748,1.988-19.737,5.4c-0.89,0.507-1.796,1.083-2.309,1.969c-0.513,0.886-0.487,2.167,0.322,2.795
					c0.667,0.517,1.602,0.442,2.44,0.343c4.514-0.537,9.029-1.075,13.543-1.612c3.309-0.394,7.595-0.236,8.774,2.88
					c-4.187,2.867-7.421,7.101-9.087,11.895c-0.238,0.684-0.446,1.421-0.275,2.125c0.418,1.719,2.883,2.13,4.389,1.202
					c1.506-0.929,2.306-2.633,3.178-4.173c0.871-1.54,2.071-3.123,3.813-3.435c1.675,0.99,1.754,3.451,1.008,5.248
					c-0.746,1.797-2.081,3.328-2.647,5.189c-0.519,1.709-0.289,3.703,0.869,5.061c1.158,1.359,3.31,1.875,4.828,0.935
					c2.864-1.773,1.82-6.775,4.561-8.732"/>
			</g>
			<g>
				<defs>
					<path id="XMLID_28_" d="M137.377,109.837c0,0-6.298-4.13-16.009-0.942c-15.773,5.179-22.836,24.72-18.363,26.603
						c4.473,1.883,9.888-6.356,9.888-6.356s0.235,8.475,5.415,8.946c5.179,0.471,7.063-12.242,7.063-12.242s1.883,6.827,5.415,7.063
						c3.531,0.235,6.356-6.356,6.356-6.356s-3.061,10.359,2.825,11.771c5.886,1.413,6.357-10.594,6.357-10.594
						s7.298,5.179,11.065,2.825C161.155,128.2,158.801,100.185,137.377,109.837z"/>
				</defs>
				<use xlink:href="#XMLID_28_"  style="overflow:visible;fill:#6E2D46;"/>
				<clipPath id="XMLID_00000008828030246061564000000008643913756750766499_">
					<use xlink:href="#XMLID_28_"  style="overflow:visible;"/>
				</clipPath>
				<path style="clip-path:url(#XMLID_00000008828030246061564000000008643913756750766499_);fill:#893D4D;" d="M102.946,125.564
					c6.334-2.787,10.541-9.841,17.363-10.998c-1.429,1.823-2.528,3.905-3.225,6.114c-0.346,1.095-0.405,2.622,0.661,3.049
					c0.654,0.262,1.385-0.073,1.991-0.432c2.934-1.737,5.409-4.239,7.114-7.191c0.235,2.703,2.916,4.945,5.618,4.7
					c2.702-0.245,4.935-2.933,4.68-5.635c4.568,3.194,10.605,4.186,15.955,2.622c3.655-3.264-0.037-7.922-1.669-11.465
					c-1.632-3.544-4.85-6.535-8.716-7.059c-2.267-0.307-4.554,0.231-6.778,0.765c-6.935,1.666-16.839,2.192-22.685,6.644
					c-2.314,1.762-4.291,4.489-5.941,6.845C106.562,114.598,102.524,125.67,102.946,125.564z"/>
			</g>
			<g>
				<defs>
					<path id="XMLID_11_" d="M77.542,221.955c0,0,4.274,13.108,20.231,14.247c15.957,1.14,20.801-8.263,20.801-8.263
						S90.365,208.277,77.542,221.955z"/>
				</defs>
				<use xlink:href="#XMLID_11_"  style="overflow:visible;fill:#5A304D;"/>
				<clipPath id="XMLID_00000095299577129353488580000009870023253462124181_">
					<use xlink:href="#XMLID_11_"  style="overflow:visible;"/>
				</clipPath>
				<path style="clip-path:url(#XMLID_00000095299577129353488580000009870023253462124181_);fill:#482037;" d="M73.079,220.799
					c1.013,4.191,5.732,8.268,9.926,7.268c12.489-2.978,19.966,4.734,29.591,1.958c5.654-1.631,11.281-5.585,12.243-11.391
					c0.101-0.609,0.111-1.328-0.354-1.735c-0.325-0.284-0.789-0.328-1.219-0.357c-11.62-0.793-23.294-0.809-34.916-0.046"/>
			</g>
			<g>
				<defs>
					<path id="XMLID_27_" d="M73.838,186.051c-7.099,2.84-13.677,7.409-13.962,13.677c-0.364,8.016,5.699,22.511,13.392,26.5
						c7.694,3.989,10.543-6.269,17.382-5.414c6.839,0.855,20.516,15.387,31.914,9.973s19.746-34.581,7.693-39.323
						c-17.382-6.839-27.64-12.823-34.764-12.823C88.37,178.643,80.962,183.202,73.838,186.051z"/>
				</defs>
				<use xlink:href="#XMLID_27_"  style="overflow:visible;fill:#5A304D;"/>
				<clipPath id="XMLID_00000121271315410286232710000006596288995490532777_">
					<use xlink:href="#XMLID_27_"  style="overflow:visible;"/>
				</clipPath>
				<path style="clip-path:url(#XMLID_00000121271315410286232710000006596288995490532777_);fill:#542C48;" d="M109.807,176.106
					c6.586,5.183,13.417,10.673,16.828,18.329c3.22,7.225,2.797,16.171-1.815,22.597c-4.612,6.426-13.525,9.695-20.964,7.01
					c-2.466-0.89-4.75-2.368-7.344-2.754c-5.089-0.757-9.709,2.792-13.629,6.124c12.021,2.504,20.971,13.856,33.149,15.426
					c10.258,1.323,20.553-5.186,25.409-14.318c4.856-9.132,4.842-20.289,1.809-30.177c-2.629-8.573-8.137-17.041-16.688-19.739"/>
			</g>
			<path style="fill:#482037;" d="M67.284,196.879c-2.201,2.812,2.279,10.543,6.839,9.118
				C78.682,204.573,72.413,190.326,67.284,196.879z"/>
			<path style="fill:#482037;" d="M117.295,198.304c2.201,2.812-2.28,10.543-6.839,9.118
				C105.897,205.998,112.166,191.75,117.295,198.304z"/>
			<path style="fill:#482037;" d="M135.48,165.526c0.254,2.479,1.512,4.742,3.223,5.714c0.705,0.4,1.467,0.588,2.228,0.703
				c1.337,0.201,2.736,0.17,3.964-0.57c1.497-0.902,2.598-2.835,2.973-4.985c0.375-2.15,0.051-4.475-0.774-6.383
				c-0.306-0.707-0.683-1.37-1.169-1.861c-0.955-0.966-2.207-1.168-3.394-1.337c-0.914-0.13-1.848-0.26-2.745,0.008
				C137.064,157.626,135.112,161.947,135.48,165.526z"/>
			<path style="fill:#482037;" d="M87.893,163.523c0.228,2.205,1.353,4.218,2.885,5.082c0.631,0.356,1.313,0.523,1.994,0.625
				c1.196,0.179,2.449,0.151,3.548-0.507c1.34-0.802,2.326-2.522,2.661-4.434c0.335-1.912,0.045-3.98-0.693-5.678
				c-0.274-0.629-0.612-1.219-1.047-1.656c-0.855-0.859-1.975-1.039-3.038-1.19c-0.818-0.116-1.654-0.231-2.458,0.007
				C89.311,156.497,87.564,160.34,87.893,163.523z"/>
			<path style="fill:#FFFFFF;" d="M142.129,162.935c0.498,1.021,1.762,1.6,2.861,1.31c0.614-0.162,1.163-0.574,1.471-1.129
				c0.308-0.555,0.365-1.248,0.133-1.839c-0.122-0.309-0.316-0.585-0.529-0.84C144.193,158.187,140.83,160.274,142.129,162.935z"/>
			<path style="fill:#FFFFFF;" d="M93.456,160.856c0.411,0.843,1.455,1.321,2.362,1.081c0.507-0.134,0.96-0.474,1.214-0.932
				c0.254-0.459,0.302-1.031,0.109-1.519c-0.101-0.255-0.261-0.483-0.437-0.694C95.161,156.935,92.384,158.659,93.456,160.856z"/>
			<path style="fill:#87444D;" d="M137.676,149.531c0.556,0.549,1.367,0.733,2.133,0.884c1.53,0.302,3.077,0.574,4.536,1.123
				c1.666,0.627,3.182,1.602,4.835,2.264c1.653,0.662,3.56,0.991,5.194,0.285s2.765-2.731,2.012-4.345
				c-0.26-0.559-0.705-1.008-1.163-1.421c-3.147-2.837-7.386-4.359-11.607-4.365c-1.662-0.003-4.309,0.029-5.708,1.077
				C136.676,145.958,136.599,148.467,137.676,149.531z"/>
			<path style="fill:#87444D;" d="M91.537,146.229c-1.528,1.419-2.731,3.298-2.918,5.375c-0.065,0.722,0.035,1.539,0.592,2.003
				c0.682,0.567,1.693,0.35,2.55,0.122c2.087-0.556,4.203-1.003,6.336-1.339c1.287-0.202,2.605-0.371,3.777-0.939
				c1.172-0.568,2.196-1.628,2.335-2.924c0.127-1.187-0.513-2.352-1.398-3.153c-1.344-1.217-3.978-2.685-5.867-2.435
				C95.04,143.191,92.893,144.972,91.537,146.229z"/>
		</g>
	</g>
</g>
</svg>
