<?xml version="1.0" encoding="utf-8"?>
<!-- Generator: Adobe Illustrator 27.5.0, SVG Export Plug-In . SVG Version: 6.00 Build 0)  -->
<svg version="1.1" xmlns="http://www.w3.org/2000/svg" xmlns:xlink="http://www.w3.org/1999/xlink" x="0px" y="0px"
	 viewBox="0 0 500 500" style="enable-background:new 0 0 500 500;" xml:space="preserve">
<!--<g id="BACKGROUND">-->
<!--	<rect style="fill:#E8FDFF;" width="500" height="500"/>-->
<!--</g>-->
<g id="OBJECTS">
	<g>
		<g>
			<path style="fill:#C1DDE0;" d="M138.804,388.394L138.804,388.394c0,5.661,4.59,10.251,10.251,10.251h5.134
				c3.765,0,6.818,3.052,6.818,6.818l0,0c0,3.765-3.052,6.818-6.818,6.818H82.523c-3.702,0-6.703,3.001-6.703,6.703l0,0
				c0,3.702,3.001,6.703,6.703,6.703H148.6c2.56,0,4.635,2.075,4.635,4.635l0,0c0,2.56,2.075,4.635,4.635,4.635h51.588
				c2.133,0,3.863-1.73,3.863-3.863l0,0c0-2.133,1.73-3.863,3.863-3.863h52.07c4.907,0,8.885,3.978,8.885,8.885l0,0
				c0,4.907,3.978,8.885,8.885,8.885h112.926c3.52,0,6.374-2.854,6.374-6.374l0,0c0-3.52-2.854-6.374-6.374-6.374h-19.611
				c-4.053,0-7.34-3.286-7.34-7.34l0,0c0-4.053,3.286-7.34,7.34-7.34l0,0c9.815,0,17.771-7.956,17.771-17.771v-25.269
				L278.139,346.86l-131.476,31.566C142.054,379.533,138.804,383.655,138.804,388.394z"/>
			<path style="fill:#C1DDE0;" d="M117.127,391.644H95.613c-3.08,0-5.577,2.497-5.577,5.577c0,3.08,2.497,5.577,5.577,5.577h21.515
				c3.08,0,5.577-2.497,5.577-5.577C122.704,394.141,120.207,391.644,117.127,391.644z"/>
		</g>
		<polygon style="fill:#9FCCD1;" points="329.711,420.389 371.954,378.147 316.249,356.783 299.786,402.312 		"/>
		<g>
			<rect x="297.807" y="118.95" style="fill:#C77616;" width="13.081" height="28.61"/>
			<polygon style="fill:#9BA54C;" points="317.958,96.537 325.725,96.537 314.574,77.222 323.336,77.222 304.348,44.333 
				285.36,77.222 294.121,77.222 282.97,96.537 290.737,96.537 277.796,118.95 330.899,118.95 			"/>
			<polygon style="fill:#B9C45A;" points="330.899,118.95 317.958,96.537 325.725,96.537 314.574,77.222 323.336,77.222 
				304.348,44.333 304.348,118.95 			"/>
		</g>
		<g>
			<path style="fill:#A52A2A;" d="M268.254,60.078L194.75,69.45c-1.376,0.175-2.349,1.433-2.173,2.808l14.365,112.657
				c0.175,1.376,1.433,2.349,2.808,2.173l73.503-9.372c6.633-0.846,11.325-6.909,10.479-13.542l-11.937-93.618
				C280.949,63.924,274.887,59.232,268.254,60.078z"/>

				<text transform="matrix(0.992 -0.1265 0.1265 0.992 214.1613 101.7108)" style="fill:#D4AF37; font-family:'Abel-Regular'; font-size:12.1576px;">ПАСПОРТ</text>
			<g>

					<ellipse transform="matrix(0.9594 -0.2821 0.2821 0.9594 -29.5533 75.0778)" style="fill:none;stroke:#D4AF37;stroke-miterlimit:10;" cx="245.954" cy="140.172" rx="24.968" ry="24.968"/>
				<line style="fill:none;stroke:#D4AF37;stroke-miterlimit:10;" x1="221.187" y1="143.33" x2="270.721" y2="137.014"/>
				<line style="fill:none;stroke:#D4AF37;stroke-miterlimit:10;" x1="249.112" y1="164.939" x2="242.796" y2="115.405"/>
				<path style="fill:none;stroke:#D4AF37;stroke-miterlimit:10;" d="M223.097,150.201c0,0,22.789,14.107,47.697-6.082"/>
				<path style="fill:none;stroke:#D4AF37;stroke-miterlimit:10;" d="M221.311,136.199c0,0,18.52-19.374,47.697-6.082"/>
				<path style="fill:none;stroke:#D4AF37;stroke-miterlimit:10;" d="M256.095,163.115c0,0,14.107-22.789-6.082-47.697"/>
				<path style="fill:none;stroke:#D4AF37;stroke-miterlimit:10;" d="M242.092,164.901c0,0-19.374-18.52-6.082-47.697"/>
			</g>

				<rect x="205.483" y="68.321" transform="matrix(0.992 -0.1265 0.1265 0.992 -14.4768 27.2552)" style="fill:#F2952B;" width="3.766" height="118.591"/>
		</g>
		<g>
			<rect x="177.901" y="112.652" style="fill:#C77616;" width="5.634" height="20.603"/>
			<ellipse style="fill:#9BA54C;" cx="180.718" cy="94.493" rx="10.576" ry="21.33"/>
			<path style="fill:#B9C45A;" d="M191.294,94.493c0-11.78-4.735-21.33-10.577-21.33v42.66
				C186.559,115.823,191.294,106.273,191.294,94.493z"/>
		</g>
		<g>
			<rect x="197.509" y="174.722" style="fill:#C77616;" width="5.634" height="20.603"/>
			<ellipse style="fill:#9BA54C;" cx="200.326" cy="156.562" rx="10.576" ry="21.33"/>
			<path style="fill:#B9C45A;" d="M210.902,156.562c0-11.78-4.735-21.33-10.576-21.33v42.66
				C206.167,177.892,210.902,168.343,210.902,156.562z"/>
		</g>
		<g>
			<rect x="397.272" y="178.503" style="fill:#C77616;" width="9.67" height="21.151"/>
			<polygon style="fill:#9BA54C;" points="412.169,161.933 417.911,161.933 409.667,147.654 416.145,147.654 402.107,123.34 
				388.07,147.654 394.547,147.654 386.303,161.933 392.045,161.933 382.478,178.503 421.736,178.503 			"/>
			<polygon style="fill:#B9C45A;" points="421.736,178.503 412.169,161.933 417.911,161.933 409.667,147.654 416.145,147.654 
				402.107,123.34 402.107,178.503 			"/>
		</g>
		<g>
			<rect x="106.406" y="135.742" style="fill:#C77616;" width="13.081" height="28.61"/>
			<polygon style="fill:#9BA54C;" points="126.558,113.329 134.324,113.329 123.173,94.014 131.935,94.014 112.947,61.126 
				93.959,94.014 102.721,94.014 91.569,113.329 99.336,113.329 86.396,135.742 139.498,135.742 			"/>
			<polygon style="fill:#B9C45A;" points="139.498,135.742 126.558,113.329 134.324,113.329 123.173,94.014 131.935,94.014 
				112.947,61.126 112.947,135.742 			"/>
		</g>
		<g>
			<rect x="144.629" y="105.883" style="fill:#C77616;" width="9.085" height="19.869"/>
			<polygon style="fill:#9BA54C;" points="158.624,90.318 164.017,90.318 156.273,76.904 162.358,76.904 149.171,54.064 
				135.984,76.904 142.069,76.904 134.325,90.318 139.719,90.318 130.732,105.883 167.61,105.883 			"/>
			<polygon style="fill:#B9C45A;" points="167.61,105.883 158.624,90.318 164.017,90.318 156.273,76.904 162.358,76.904 
				149.171,54.064 149.171,105.883 			"/>
		</g>
		<g>
			<polygon style="fill:#55BEC1;" points="203.709,412.28 99.426,363.221 99.426,141.34 203.709,190.399 			"/>
			<polygon style="fill:#3C9699;" points="203.709,412.28 307.991,363.221 307.991,141.34 203.709,190.399 			"/>
			<polygon style="fill:#55BEC1;" points="412.273,412.28 307.991,363.221 307.991,141.34 412.273,190.399 			"/>
			<g>
				<path style="fill:#2D7D80;" d="M205.165,221.841c-3.619-1.286-7.615,0.607-10.568,3.063c-2.953,2.456-5.445,5.548-8.852,7.323
					c-4.275,2.227-9.735,1.978-13.79-0.628c-4.801-3.086-7.228-8.794-11.469-12.614c-2.357-2.122-5.219-3.608-8.156-4.804
					c-4.787-1.948-10.123-3.185-15.118-1.858c-4.995,1.327-9.41,5.833-9.225,10.998c0.615,17.179,12.138,32.009,12.924,49.181
					c0.694,15.164-10.485,29.898-6.57,44.564c0.755,2.83,2.051,5.484,3.418,8.074c6.431,12.183,14.64,23.425,24.288,33.259
					c6.174,6.294,10.386,14.012,17.881,18.656c7.726,4.787,16.184,9.361,25.269,9.121c6.528-0.173,12.724-2.838,18.508-5.87
					c13.102-6.87,25.082-15.874,35.322-26.551c8.574-8.939,18.954-16.704,30.799-20.324c6.388-1.952,13.789-2.279,19.312,1.478
					c2.278,1.55,4.112,3.711,6.488,5.107c7.39,4.342,16.956-0.007,25.31,1.913c8.068,1.854,13.564,9.105,18.349,15.861
					c3.451,4.874,11.293,5.353,17.227,4.684c5.934-0.67,11.513-3.13,16.823-5.861c1.758-0.904,3.561-1.894,4.725-3.492
					c1.139-1.565,1.536-3.534,1.904-5.435c1-5.169,1.982-10.63,0.237-15.597c-1.52-4.327-4.909-7.688-7.406-11.534
					c-7.242-11.152-6.144-27.045,2.563-37.095c6.295-7.266,5.816-19.045,6.596-28.628c0.78-9.583-1.345-20.04-8.427-26.542
					c-6.366-5.845-15.579-7.54-22.456-12.773c-12.214-9.296-15.56-28.439-29.738-34.321c-5.048-2.094-10.686-2.074-16.151-2.023
					c-12.879,0.122-25.759,0.244-38.638,0.366c-5.18,0.049-10.406,0.103-15.461,1.236c-9.043,2.027-17.239,7.611-22.435,15.286
					c-7.371,10.888-8.463,24.923-14.861,36.41c-0.659,1.184-1.407,2.373-2.527,3.134c-1.281,0.87-2.903,1.077-4.45,1.02
					C218.335,236.312,210.571,228.378,205.165,221.841z"/>
				<path style="fill:#FFC47A;" d="M203.928,215.97c-3.619-1.287-7.615,0.607-10.568,3.063c-2.953,2.456-5.445,5.548-8.852,7.323
					c-4.275,2.227-9.735,1.978-13.79-0.628c-4.801-3.086-7.228-8.794-11.469-12.614c-2.356-2.123-5.219-3.609-8.156-4.804
					c-4.787-1.948-10.123-3.185-15.118-1.858c-4.995,1.327-9.41,5.833-9.225,10.998c0.615,17.179,12.138,32.009,12.924,49.181
					c0.694,15.163-10.485,29.898-6.57,44.564c0.755,2.83,2.051,5.484,3.418,8.074c6.431,12.183,14.64,23.425,24.288,33.259
					c6.174,6.294,10.386,14.012,17.881,18.656c7.726,4.787,16.184,9.361,25.27,9.121c6.528-0.173,12.724-2.838,18.508-5.87
					c13.102-6.87,25.082-15.874,35.323-26.551c8.574-8.939,18.954-16.704,30.799-20.325c6.388-1.952,13.789-2.279,19.312,1.478
					c2.278,1.55,4.112,3.711,6.487,5.107c7.39,4.342,16.956-0.007,25.31,1.913c8.068,1.854,13.565,9.105,18.349,15.861
					c3.451,4.874,11.293,5.353,17.227,4.684c5.934-0.669,11.513-3.13,16.823-5.861c1.758-0.904,3.561-1.894,4.725-3.492
					c1.139-1.565,1.536-3.534,1.904-5.435c1-5.169,1.982-10.63,0.237-15.597c-1.52-4.327-4.908-7.688-7.406-11.534
					c-7.242-11.152-6.144-27.045,2.563-37.095c6.295-7.266,5.816-19.045,6.596-28.628c0.78-9.582-1.345-20.04-8.427-26.542
					c-6.366-5.845-15.579-7.54-22.456-12.773c-12.215-9.296-15.56-28.439-29.738-34.321c-5.048-2.094-10.686-2.074-16.151-2.023
					c-12.879,0.122-25.759,0.244-38.638,0.366c-5.18,0.049-10.406,0.103-15.461,1.236c-9.043,2.027-17.239,7.612-22.435,15.286
					c-7.371,10.888-8.463,24.923-14.861,36.41c-0.659,1.184-1.407,2.373-2.527,3.134c-1.281,0.87-2.903,1.077-4.45,1.02
					C217.098,230.441,209.334,222.507,203.928,215.97z"/>
				<path style="fill:#E0A65E;" d="M307.991,173.452c-7.561,0.072-15.122,0.143-22.683,0.215c-5.18,0.049-10.406,0.103-15.461,1.236
					c-9.043,2.027-17.239,7.612-22.435,15.286c-7.371,10.888-8.463,24.923-14.861,36.41c-0.659,1.184-1.407,2.373-2.527,3.134
					c-1.281,0.87-2.903,1.077-4.45,1.02c-8.477-0.312-16.241-8.246-21.647-14.783c-0.073-0.026-0.147-0.042-0.22-0.066v164.398
					c0.084-0.001,0.168,0.004,0.252,0.001c6.528-0.173,12.724-2.838,18.508-5.87c13.102-6.87,25.082-15.874,35.323-26.551
					c8.574-8.939,18.954-16.704,30.799-20.325c6.388-1.952,13.789-2.279,19.312,1.478c0.03,0.021,0.059,0.044,0.089,0.065V173.452z"
					/>
			</g>
			<g>
				<g>
					<g>
						<g>
							<path style="fill:#FFFFFF;" d="M354.352,320.735c-0.008-0.015-0.297-0.553-0.877-1.493l1.525-0.941
								c0.626,1.015,0.933,1.591,0.933,1.591L354.352,320.735z"/>
						</g>
						<g>
							<path style="fill:#FFFFFF;" d="M351.574,316.358c-0.646-0.925-1.336-1.867-2.052-2.799l1.422-1.092
								c0.732,0.954,1.438,1.918,2.099,2.865L351.574,316.358z M347.35,310.85c-0.737-0.879-1.505-1.76-2.284-2.617l1.325-1.206
								c0.795,0.875,1.58,1.774,2.332,2.673L347.35,310.85z M342.677,305.711c-0.802-0.814-1.639-1.63-2.487-2.425l1.225-1.307
								c0.866,0.811,1.72,1.643,2.539,2.474L342.677,305.711z M337.607,300.964c-0.877-0.756-1.777-1.501-2.674-2.214l1.114-1.403
								c0.917,0.727,1.836,1.488,2.731,2.261L337.607,300.964z M332.17,296.649c-0.937-0.681-1.895-1.349-2.848-1.983l0.992-1.492
								c0.975,0.648,1.954,1.33,2.91,2.026L332.17,296.649z M326.393,292.805c-0.997-0.604-2.008-1.186-3.005-1.732l0.86-1.571
								c1.019,0.557,2.053,1.153,3.073,1.771L326.393,292.805z M320.311,289.471c-1.035-0.51-2.092-1.003-3.143-1.463l0.72-1.641
								c1.074,0.471,2.156,0.975,3.215,1.498L320.311,289.471z M313.964,286.684c-1.065-0.414-2.162-0.812-3.259-1.183l0.575-1.697
								c1.122,0.38,2.243,0.786,3.332,1.209L313.964,286.684z M307.397,284.461c-1.103-0.32-2.23-0.621-3.349-0.893l0.423-1.741
								c1.145,0.279,2.297,0.586,3.425,0.914L307.397,284.461z M262.706,283.452l-0.364-1.755c1.169-0.242,2.326-0.465,3.471-0.666
								l0.311,1.764C264.996,282.994,263.857,283.213,262.706,283.452z M300.662,282.819c-1.121-0.222-2.27-0.426-3.415-0.604
								l0.276-1.771c1.169,0.182,2.343,0.389,3.488,0.618L300.662,282.819z M269.56,282.244l-0.255-1.774
								c1.183-0.17,2.353-0.319,3.509-0.447l0.197,1.781C271.873,281.93,270.723,282.076,269.56,282.244z M293.809,281.753
								c-1.129-0.128-2.291-0.236-3.455-0.322l0.131-1.786c1.187,0.087,2.374,0.198,3.526,0.329L293.809,281.753z M276.472,281.48
								l-0.137-1.786c1.178-0.09,2.367-0.16,3.533-0.207l0.073,1.79C278.797,281.323,277.629,281.391,276.472,281.48z
								 M286.889,281.246c-1.012-0.033-2.035-0.051-3.072-0.051l-0.4,0.001l-0.011-1.792l0.411-0.001c1.056,0,2.1,0.018,3.131,0.053
								L286.889,281.246z"/>
						</g>
						<g>
							<path style="fill:#FFFFFF;" d="M254.458,285.422l2.246-2.283c0,0,0.452-0.459,1.326-1.265l0.602,0.653
								c0.081-0.019,0.162-0.038,0.243-0.058l0.103,0.434l0.266,0.289c-0.056,0.052-0.11,0.102-0.162,0.15l0.207,0.87
								c-0.573,0.137-1.148,0.277-1.727,0.424L254.458,285.422z"/>
						</g>
						<g>
							<path style="fill:#FFFFFF;" d="M261.996,280.776l-1.154-1.37c0.926-0.78,1.903-1.572,2.905-2.356l1.104,1.41
								C263.866,279.231,262.906,280.01,261.996,280.776z M267.785,276.242l-1.058-1.447c0.953-0.696,1.97-1.419,3.048-2.157
								l1.013,1.478C269.725,274.843,268.724,275.554,267.785,276.242z M273.855,272.085l-0.967-1.508
								c1.015-0.651,2.073-1.307,3.174-1.966l0.92,1.538C275.898,270.796,274.855,271.444,273.855,272.085z M280.168,268.307
								l-0.872-1.565c1.063-0.593,2.16-1.183,3.288-1.768l0.824,1.591C282.296,267.141,281.215,267.723,280.168,268.307z
								 M286.698,264.927l-0.772-1.617c1.104-0.528,2.236-1.048,3.394-1.557l0.721,1.64
								C288.901,263.894,287.786,264.407,286.698,264.927z M293.43,261.97l-0.667-1.663c1.154-0.463,2.328-0.911,3.49-1.332
								l0.61,1.685C295.721,261.074,294.566,261.515,293.43,261.97z M300.339,259.467l-0.553-1.704
								c1.181-0.383,2.384-0.75,3.573-1.09l0.493,1.723C302.683,258.729,301.5,259.09,300.339,259.467z M354.615,257.568
								c-1.188-0.302-2.39-0.585-3.573-0.839l0.378-1.752c1.204,0.26,2.427,0.547,3.636,0.854L354.615,257.568z M307.4,257.448
								l-0.43-1.739c1.21-0.3,2.435-0.58,3.643-0.833l0.367,1.753C309.793,256.878,308.589,257.153,307.4,257.448z M347.441,256.021
								c-1.203-0.213-2.422-0.405-3.624-0.57l0.245-1.775c1.224,0.169,2.465,0.364,3.691,0.581L347.441,256.021z M314.586,255.943
								l-0.303-1.766c1.233-0.211,2.476-0.4,3.695-0.561l0.235,1.776C317.017,255.55,315.797,255.736,314.586,255.943z
								 M340.175,255.019c-1.215-0.12-2.445-0.219-3.657-0.292l0.109-1.788c1.234,0.075,2.488,0.175,3.725,0.298L340.175,255.019z
								 M321.861,254.976l-0.169-1.784c1.232-0.116,2.486-0.21,3.727-0.28l0.1,1.789C324.3,254.77,323.069,254.862,321.861,254.976z
								 M332.853,254.577c-1.234-0.027-2.457-0.029-3.668-0.009l-0.031-1.792c1.235-0.021,2.48-0.019,3.738,0.009L332.853,254.577z"
								/>
						</g>
						<g>
							<path style="fill:#FFFFFF;" d="M364.259,260.422l-4.393-1.367c-0.569-0.177-1.135-0.349-1.701-0.514l0.178-0.607
								c-0.052-0.04-0.107-0.082-0.162-0.124l0.322-0.421l0.166-0.566c0.073,0.021,0.145,0.042,0.218,0.064l0.382-0.499
								c0.942,0.721,1.43,1.121,1.43,1.121L364.259,260.422z"/>
						</g>
						<g>
							<path style="fill:#FFFFFF;" d="M355.365,255.719c-0.841-0.607-1.801-1.287-2.877-2.03l1.018-1.474
								c1.087,0.75,2.058,1.438,2.907,2.052L355.365,255.719z M349.571,251.717c-0.926-0.614-1.911-1.255-2.953-1.919l0.963-1.511
								c1.052,0.67,2.046,1.317,2.98,1.936L349.571,251.717z M343.63,247.929c-0.967-0.593-1.973-1.2-3.018-1.819l0.913-1.542
								c1.053,0.624,2.068,1.235,3.042,1.834L343.63,247.929z M161.416,244.854l-1.009-1.481c0.986-0.672,1.971-1.328,2.957-1.97
								l0.978,1.501C163.367,243.54,162.391,244.19,161.416,244.854z M337.566,244.342c-0.996-0.567-2.02-1.141-3.074-1.719
								l0.862-1.571c1.063,0.583,2.096,1.161,3.1,1.734L337.566,244.342z M167.307,241.017l-0.947-1.521
								c1.012-0.63,2.025-1.245,3.036-1.845l0.914,1.541C169.309,239.785,168.308,240.393,167.307,241.017z M331.389,240.953
								c-1.019-0.538-2.062-1.079-3.128-1.62l0.811-1.598c1.074,0.546,2.126,1.091,3.153,1.633L331.389,240.953z M325.108,237.764
								c-1.04-0.507-2.099-1.014-3.178-1.518l0.759-1.623c1.088,0.509,2.156,1.019,3.204,1.531L325.108,237.764z M173.352,237.431
								l-0.881-1.561c1.038-0.586,2.076-1.157,3.114-1.712l0.846,1.579C175.405,236.286,174.379,236.851,173.352,237.431z
								 M318.728,234.78c-1.058-0.475-2.133-0.946-3.225-1.414l0.706-1.646c1.101,0.472,2.185,0.947,3.252,1.425L318.728,234.78z
								 M179.547,234.112l-0.81-1.598c1.063-0.54,2.126-1.064,3.188-1.572l0.774,1.616
								C181.649,233.061,180.598,233.579,179.547,234.112z M312.255,232.007c-1.076-0.44-2.166-0.875-3.27-1.305l0.65-1.669
								c1.114,0.433,2.213,0.872,3.298,1.315L312.255,232.007z M185.885,231.077l-0.738-1.633c1.087-0.49,2.173-0.965,3.258-1.424
								l0.698,1.65C188.032,230.124,186.959,230.592,185.885,231.077z M305.693,229.455c-1.091-0.403-2.196-0.8-3.313-1.191
								l0.592-1.691c1.126,0.394,2.24,0.794,3.342,1.201L305.693,229.455z M192.355,228.34l-0.66-1.666
								c1.108-0.439,2.216-0.862,3.322-1.269l0.619,1.682C194.544,227.489,193.45,227.906,192.355,228.34z M299.048,227.133
								c-1.106-0.364-2.223-0.722-3.352-1.071l0.529-1.711c1.139,0.352,2.267,0.713,3.384,1.081L299.048,227.133z M198.947,225.913
								l-0.579-1.696c1.128-0.385,2.254-0.754,3.379-1.108l0.537,1.709C201.173,225.168,200.061,225.532,198.947,225.913z
								 M292.325,225.051c-1.12-0.324-2.249-0.64-3.388-0.947l0.466-1.73c1.15,0.31,2.29,0.628,3.421,0.956L292.325,225.051z
								 M205.648,223.806l-0.495-1.722c1.145-0.329,2.288-0.643,3.429-0.941l0.453,1.733
								C207.908,223.171,206.779,223.481,205.648,223.806z M285.531,223.222c-1.132-0.281-2.272-0.554-3.421-0.816l0.398-1.747
								c1.16,0.265,2.313,0.54,3.456,0.825L285.531,223.222z M212.443,222.03l-0.41-1.745c1.16-0.273,2.317-0.53,3.471-0.772
								l0.368,1.753C214.731,221.507,213.588,221.76,212.443,222.03z M278.673,221.658c-1.142-0.237-2.292-0.463-3.451-0.68
								l0.329-1.761c1.17,0.218,2.332,0.447,3.486,0.687L278.673,221.658z M219.316,220.59l-0.324-1.762
								c1.172-0.216,2.34-0.416,3.505-0.602l0.282,1.77C221.628,220.179,220.474,220.377,219.316,220.59z M271.759,220.369
								c-1.151-0.19-2.309-0.37-3.474-0.537l0.255-1.773c1.178,0.169,2.349,0.35,3.512,0.542L271.759,220.369z M226.254,219.487
								l-0.237-1.776c1.18-0.157,2.356-0.3,3.53-0.429l0.194,1.781C228.582,219.19,227.42,219.332,226.254,219.487z M264.8,219.369
								c-1.158-0.141-2.323-0.271-3.493-0.389l0.178-1.783c1.184,0.119,2.361,0.25,3.532,0.393L264.8,219.369z M233.237,218.725
								l-0.151-1.786c1.186-0.1,2.369-0.186,3.547-0.258l0.108,1.788C235.577,218.54,234.409,218.625,233.237,218.725z
								 M257.805,218.669c-1.163-0.091-2.331-0.169-3.506-0.235l0.1-1.789c1.188,0.066,2.37,0.145,3.546,0.237L257.805,218.669z
								 M240.249,218.298l-0.066-1.791c1.189-0.044,2.375-0.074,3.555-0.089l0.024,1.792
								C242.595,218.226,241.424,218.255,240.249,218.298z M250.788,218.279c-1.166-0.038-2.337-0.063-3.513-0.075l0.018-1.792
								c1.19,0.012,2.375,0.038,3.554,0.076L250.788,218.279z"/>
						</g>
						<g>
							<path style="fill:#FFFFFF;" d="M157.084,247.901l-1.052-1.451c0.489-0.355,0.977-0.706,1.466-1.053l1.038,1.461
								C158.051,247.203,157.568,247.55,157.084,247.901z"/>
						</g>
					</g>
					<g>
						<path style="fill:#FFFFFF;" d="M207.201,353.678c-0.014-0.055-0.336-1.355-0.692-3.6l1.77-0.28
							c0.341,2.158,0.657,3.432,0.66,3.445L207.201,353.678z M206.036,346.478c-0.127-1.191-0.228-2.408-0.298-3.614l1.788-0.105
							c0.069,1.178,0.167,2.366,0.291,3.53L206.036,346.478z M205.612,339.24c-0.003-0.276-0.005-0.556-0.004-0.839
							c0-0.905,0.016-1.837,0.052-2.792l1.791,0.068c-0.035,0.932-0.052,1.842-0.052,2.725c0,0.276,0.001,0.549,0.004,0.818
							L205.612,339.24z M207.675,332.145l-1.785-0.159c0.108-1.21,0.25-2.424,0.421-3.611l1.773,0.257
							C207.918,329.785,207.78,330.968,207.675,332.145z M208.69,325.15l-1.756-0.359c0.244-1.194,0.526-2.386,0.837-3.542
							l1.73,0.465C209.199,322.837,208.926,323.992,208.69,325.15z M210.528,318.345l-1.695-0.579
							c0.394-1.156,0.83-2.303,1.296-3.408l1.651,0.696C211.331,316.121,210.909,317.228,210.528,318.345z M213.262,311.866
							l-1.596-0.815c0.553-1.083,1.152-2.155,1.781-3.185l1.529,0.933C214.371,309.79,213.795,310.822,213.262,311.866z
							 M216.921,305.878l-1.451-1.05c0.709-0.98,1.468-1.946,2.256-2.87l1.364,1.162
							C218.332,304.009,217.603,304.937,216.921,305.878z M221.47,300.543l-1.268-1.267c0.85-0.85,1.75-1.683,2.676-2.478
							l1.166,1.359C223.153,298.923,222.287,299.725,221.47,300.543z M226.794,295.976l-1.06-1.444
							c0.965-0.709,1.978-1.398,3.01-2.049l0.955,1.515C228.703,294.627,227.726,295.293,226.794,295.976z M232.738,292.225
							l-0.851-1.577c1.04-0.562,2.133-1.108,3.249-1.626l0.753,1.626C234.806,291.151,233.745,291.681,232.738,292.225z
							 M239.133,289.264l-0.657-1.668c1.091-0.43,2.238-0.846,3.408-1.237l0.568,1.699
							C241.311,288.44,240.195,288.845,239.133,289.264z M245.832,287.026l-0.482-1.725c1.145-0.32,2.325-0.621,3.507-0.896
							l0.405,1.746C248.106,286.419,246.952,286.714,245.832,287.026z M252.729,285.423l-0.333-1.76
							c1.17-0.221,2.369-0.423,3.565-0.603l0.265,1.772C255.053,285.007,253.876,285.207,252.729,285.423z M255.934,281.694
							c-0.248-1.124-0.488-2.318-0.715-3.546l1.762-0.325c0.223,1.208,0.46,2.381,0.703,3.486L255.934,281.694z M254.614,274.588
							c-0.173-1.117-0.343-2.312-0.503-3.575l1.778-0.225c0.157,1.245,0.325,2.424,0.496,3.525L254.614,274.588z M253.709,267.424
							c-0.113-1.162-0.214-2.364-0.296-3.6l1.787-0.12c0.082,1.217,0.181,2.401,0.292,3.545L253.709,267.424z M253.225,260.217
							c-0.043-1.208-0.066-2.424-0.07-3.613l1.792-0.004c0.003,1.203,0.027,2.389,0.069,3.553L253.225,260.217z M255.002,253.047
							l-1.791-0.061c0.042-1.218,0.107-2.435,0.194-3.616l1.786,0.132C255.107,250.659,255.043,251.852,255.002,253.047z
							 M255.53,245.971l-1.78-0.209c0.143-1.217,0.315-2.425,0.509-3.59l1.767,0.295C255.837,243.604,255.67,244.783,255.53,245.971
							z M256.699,238.995l-1.749-0.389c0.266-1.198,0.566-2.384,0.891-3.526l1.724,0.491
							C257.248,236.68,256.957,237.831,256.699,238.995z M258.639,232.215l-1.687-0.604c0.415-1.16,0.87-2.3,1.351-3.389
							l1.639,0.725C259.478,229.997,259.04,231.096,258.639,232.215z M261.49,225.798l-1.575-0.855
							c0.587-1.081,1.221-2.136,1.885-3.136l1.492,0.99C262.659,223.754,262.052,224.763,261.49,225.798z M265.358,219.981
							l-1.393-1.127c0.771-0.954,1.594-1.873,2.446-2.734l1.274,1.261C266.874,218.2,266.092,219.074,265.358,219.981z
							 M270.26,215.031l-1.139-1.383c0.937-0.771,1.928-1.506,2.946-2.184l0.994,1.491
							C272.092,213.6,271.149,214.299,270.26,215.031z M276.055,211.167l-0.842-1.581c1.059-0.565,2.171-1.092,3.306-1.568
							l0.694,1.652C278.128,210.124,277.066,210.628,276.055,211.167z M282.496,208.457l-0.55-1.705
							c1.133-0.366,2.315-0.696,3.511-0.982l0.417,1.743C284.722,207.787,283.585,208.105,282.496,208.457z M289.32,206.816
							l-0.295-1.767c1.167-0.195,2.38-0.357,3.604-0.484l0.185,1.782C291.626,206.47,290.45,206.627,289.32,206.816z"/>
					</g>
				</g>
				<g>
					<g>
						<g>
							<circle style="fill:#FFFFFF;" cx="360.132" cy="258.199" r="7.701"/>
						</g>
						<g>
							<circle style="fill:#0E7476;" cx="360.132" cy="258.199" r="3.322"/>
						</g>
					</g>
					<g>
						<g>
							<circle style="fill:#FFFFFF;" cx="292.73" cy="205.455" r="7.701"/>
						</g>
						<g>
							<circle style="fill:#0E7476;" cx="292.73" cy="205.455" r="3.322"/>
						</g>
					</g>
					<g>
						<g>
							
								<ellipse transform="matrix(0.9806 -0.1961 0.1961 0.9806 -45.4349 35.5035)" style="fill:#FFFFFF;" cx="156.557" cy="247.176" rx="7.701" ry="7.701"/>
						</g>
						<g>
							<path style="fill:#0E7476;" d="M159.88,247.176c0-1.835-1.487-3.322-3.322-3.322c-1.835,0-3.322,1.487-3.322,3.322
								c0,1.835,1.487,3.322,3.322,3.322C158.392,250.498,159.88,249.01,159.88,247.176z"/>
						</g>
					</g>
					<g>
						<g>
							<circle style="fill:#FFFFFF;" cx="208.07" cy="353.46" r="7.701"/>
						</g>
						<g>
							<path style="fill:#0E7476;" d="M211.392,353.46c0-1.835-1.487-3.322-3.322-3.322c-1.835,0-3.322,1.487-3.322,3.322
								c0,1.835,1.487,3.322,3.322,3.322C209.905,356.783,211.392,355.295,211.392,353.46z"/>
						</g>
					</g>
					<g>
						<g>
							
								<ellipse transform="matrix(0.9875 -0.1577 0.1577 0.9875 -41.5247 44.1274)" style="fill:#FFFFFF;" cx="257.343" cy="283.766" rx="7.702" ry="7.701"/>
						</g>
						<g>
							<path style="fill:#0E7476;" d="M260.665,283.766c0-1.835-1.487-3.322-3.322-3.322c-1.835,0-3.322,1.487-3.322,3.322
								c0,1.835,1.487,3.322,3.322,3.322C259.178,287.089,260.665,285.601,260.665,283.766z"/>
						</g>
					</g>
					<g>
						<g>
							<circle style="fill:#FFFFFF;" cx="355.142" cy="320.313" r="7.701"/>
						</g>
						<g>
							<circle style="fill:#0E7476;" cx="355.142" cy="320.313" r="3.322"/>
						</g>
					</g>
				</g>
			</g>
			<g>
				<g>
					<polygon style="fill:#0E7476;" points="171.547,285 168.429,279.6 170.3,279.6 167.613,274.946 169.724,274.946 
						165.149,267.022 160.574,274.946 162.686,274.946 159.999,279.6 161.87,279.6 158.752,285 163.574,285 163.574,291.893 
						166.725,291.893 166.725,285 					"/>
					<polygon style="fill:#0E7476;" points="384.41,269.365 381.292,263.964 383.164,263.964 380.477,259.31 382.588,259.31 
						378.013,251.386 373.438,259.31 375.549,259.31 372.862,263.964 374.734,263.964 371.616,269.365 376.437,269.365 
						376.437,276.258 379.589,276.258 379.589,269.365 					"/>
					<polygon style="fill:#0E7476;" points="341.044,273.551 337.926,268.151 339.797,268.151 337.11,263.497 339.221,263.497 
						334.646,255.573 330.071,263.497 332.182,263.497 329.496,268.151 331.367,268.151 328.249,273.551 333.07,273.551 
						333.07,280.444 336.222,280.444 336.222,273.551 					"/>
					<polygon style="fill:#0E7476;" points="295.805,306.454 292.687,301.053 294.558,301.053 291.872,296.4 293.983,296.4 
						289.408,288.476 284.833,296.4 286.944,296.4 284.257,301.053 286.128,301.053 283.01,306.454 287.832,306.454 
						287.832,313.347 290.984,313.347 290.984,306.454 					"/>
					<polygon style="fill:#0E7476;" points="184.341,336.279 181.223,330.879 183.095,330.879 180.408,326.225 182.519,326.225 
						177.944,318.301 173.369,326.225 175.48,326.225 172.793,330.879 174.665,330.879 171.547,336.279 176.368,336.279 
						176.368,343.172 179.52,343.172 179.52,336.279 					"/>
					<polygon style="fill:#0E7476;" points="228.566,265.889 225.448,260.489 227.32,260.489 224.633,255.835 226.744,255.835 
						222.169,247.911 217.594,255.835 219.705,255.835 217.018,260.489 218.889,260.489 215.771,265.889 220.593,265.889 
						220.593,272.783 223.745,272.783 223.745,265.889 					"/>
					<polygon style="fill:#0E7476;" points="353.838,224.169 350.72,218.768 352.591,218.768 349.905,214.114 352.016,214.114 
						347.441,206.19 342.866,214.114 344.977,214.114 342.29,218.768 344.161,218.768 341.044,224.169 345.865,224.169 
						345.865,231.062 349.017,231.062 349.017,224.169 					"/>
					<polygon style="fill:#0E7476;" points="161.007,275.778 157.889,270.378 159.76,270.378 157.074,265.724 159.185,265.724 
						154.61,257.8 150.035,265.724 152.146,265.724 149.459,270.378 151.33,270.378 148.213,275.778 153.034,275.778 
						153.034,282.671 156.186,282.671 156.186,275.778 					"/>
				</g>
			</g>
			<g>
				<polygon style="fill:#ABFCFF;" points="315.452,170.022 295.937,194.52 334.968,194.52 				"/>
				<polygon style="fill:#55BEC1;" points="295.937,194.52 323.225,194.52 309.581,177.393 				"/>
				<polygon style="fill:#ABFCFF;" points="292.202,161.497 265.895,194.52 318.508,194.52 				"/>
				<polygon style="fill:#FFFFFF;" points="265.895,194.52 286.202,194.52 289.408,177.393 282.763,187.141 292.202,161.497 				"/>
			</g>
			<g>
				<rect x="179.486" y="263.822" style="fill:#0E7476;" width="10.146" height="9.656"/>
				<rect x="190.424" y="246.431" style="fill:#52C0BF;" width="3.855" height="8.996"/>
				<path style="fill:#52C0BF;" d="M175.13,258.583v14.895h6.232v-4.525c0-2.283,1.851-4.135,4.135-4.135s4.135,1.851,4.135,4.135
					v4.525h6.232v-14.895H175.13z"/>
				<polygon style="fill:#3AA6A5;" points="175.13,259.79 195.864,262.558 195.864,258.583 175.13,258.583 				"/>
				<polygon style="fill:#0E7476;" points="185.497,245.904 172.369,258.977 198.625,258.977 				"/>
			</g>
			<g>
				<rect x="369.678" y="236.043" style="fill:#0E7476;" width="9.126" height="8.686"/>
				<rect x="379.516" y="220.399" style="fill:#52C0BF;" width="3.468" height="8.092"/>
				<path style="fill:#52C0BF;" d="M365.76,231.33v13.398h5.606v-4.07c0-2.054,1.665-3.719,3.719-3.719
					c2.054,0,3.719,1.665,3.719,3.719v4.07h5.606V231.33H365.76z"/>
				<polygon style="fill:#3AA6A5;" points="365.76,232.416 384.41,234.906 384.41,231.33 365.76,231.33 				"/>
				<polygon style="fill:#0E7476;" points="375.085,219.925 363.276,231.685 386.894,231.685 				"/>
			</g>
			<g>
				<rect x="243.156" y="321.269" style="fill:#0E7476;" width="8.583" height="8.168"/>
				<rect x="252.409" y="306.558" style="fill:#3AA6A5;" width="3.261" height="7.61"/>
				<path style="fill:#3AA6A5;" d="M239.472,316.838v12.6h5.272v-3.827c0-1.932,1.566-3.498,3.498-3.498
					c1.932,0,3.498,1.566,3.498,3.498v3.827h5.272v-12.6H239.472z"/>
				<polygon style="fill:#2D8786;" points="239.472,317.858 257.011,320.2 257.011,316.838 239.472,316.838 				"/>
				<polygon style="fill:#0E7476;" points="248.241,306.112 237.136,317.171 259.347,317.171 				"/>
			</g>
			<g>
				<rect x="270.747" y="240.021" style="fill:#0E7476;" width="9.892" height="9.415"/>
				<rect x="281.411" y="223.065" style="fill:#3AA6A5;" width="3.759" height="8.771"/>
				<path style="fill:#3AA6A5;" d="M266.5,234.913v14.522h6.076v-4.411c0-2.227,1.805-4.031,4.031-4.031s4.031,1.805,4.031,4.031
					v4.411h6.076v-14.522H266.5z"/>
				<polygon style="fill:#2D8786;" points="266.5,236.089 286.715,238.789 286.715,234.913 266.5,234.913 				"/>
				<polygon style="fill:#0E7476;" points="276.608,222.551 263.808,235.297 289.408,235.297 				"/>
			</g>
			<g>
				<path style="fill:#CC9856;" d="M163.331,296.27c-1.291,0.212-2.871,0.729-2.979,1.936c-0.103,1.147,1.256,1.919,2.464,2.203
					c1.208,0.284,2.606,0.452,3.324,1.393c0.353,0.462,0.471,1.038,0.699,1.563c0.784,1.798,2.799,2.869,4.787,3.488
					c1.989,0.619,4.112,0.936,5.941,1.886c1.387,0.721,2.567,1.788,4.055,2.308c1.326,0.464,2.789,0.453,4.199,0.324
					c2.166-0.199,4.292-0.662,6.41-1.124c2.093-0.456,4.352-1.008,5.674-2.574c0.831-0.986,1.172-2.248,1.876-3.315
					c2.263-3.43,7.72-4.185,9.853-7.685c0.878-1.441,1.052-3.158,1.005-4.811c-0.041-1.436-0.247-2.903-0.956-4.182
					c-1.089-1.962-3.26-3.26-5.545-3.9c-2.284-0.64-4.705-0.705-7.091-0.765c-4.412-0.11-8.824-0.221-13.236-0.331
					c-1.712-0.043-3.648-0.004-4.817,1.151c-1.241,1.226-0.88,3.494,0.69,4.338c1.265,0.68,2.843,0.438,4.305,0.508
					c1.995,0.096,6.761,1.423,6.236,4.027c-0.484,2.4-4.659,2.083-6.492,2.055C176.901,294.66,170.058,295.165,163.331,296.27z"/>
				<path style="fill:#FFFFFF;" d="M165.025,298.183c-1.192,0.212-2.651,0.729-2.751,1.936c-0.095,1.147,1.16,1.919,2.275,2.203
					c1.115,0.284,2.407,0.452,3.07,1.393c0.326,0.462,0.435,1.038,0.646,1.563c0.724,1.798,2.585,2.869,4.421,3.488
					c1.837,0.619,3.797,0.936,5.487,1.886c1.281,0.721,2.371,1.788,3.746,2.308c1.224,0.464,2.576,0.453,3.878,0.324
					c2-0.199,3.964-0.662,5.92-1.124c1.933-0.456,4.02-1.007,5.24-2.574c0.768-0.986,1.083-2.248,1.733-3.315
					c2.09-3.43,7.13-4.185,9.1-7.685c0.811-1.441,0.972-3.158,0.928-4.811c-0.038-1.437-0.228-2.903-0.883-4.182
					c-1.005-1.962-3.011-3.26-5.121-3.9c-2.11-0.64-4.345-0.705-6.549-0.765c-4.075-0.11-8.15-0.221-12.225-0.331
					c-1.581-0.043-3.369-0.004-4.449,1.151c-1.146,1.226-0.813,3.494,0.637,4.338c1.169,0.681,2.626,0.438,3.976,0.508
					c1.843,0.096,6.244,1.423,5.759,4.027c-0.447,2.4-4.303,2.083-5.996,2.055C177.557,296.573,171.238,297.078,165.025,298.183z"/>
				<g>
					<defs>
						<path id="SVGID_1_" d="M165.025,298.183c-1.192,0.212-2.651,0.729-2.751,1.936c-0.095,1.147,1.16,1.919,2.275,2.203
							c1.115,0.284,2.407,0.452,3.07,1.393c0.326,0.462,0.435,1.038,0.646,1.563c0.724,1.798,2.585,2.869,4.421,3.488
							c1.837,0.619,3.797,0.936,5.487,1.886c1.281,0.721,2.371,1.788,3.746,2.308c1.224,0.464,2.576,0.453,3.878,0.324
							c2-0.199,3.964-0.662,5.92-1.124c1.933-0.456,4.02-1.007,5.24-2.574c0.768-0.986,1.083-2.248,1.733-3.315
							c2.09-3.43,7.13-4.185,9.1-7.685c0.811-1.441,0.972-3.158,0.928-4.811c-0.038-1.437-0.228-2.903-0.883-4.182
							c-1.005-1.962-3.011-3.26-5.121-3.9c-2.11-0.64-4.345-0.705-6.549-0.765c-4.075-0.11-8.15-0.221-12.225-0.331
							c-1.581-0.043-3.369-0.004-4.449,1.151c-1.146,1.226-0.813,3.494,0.637,4.338c1.169,0.681,2.626,0.438,3.976,0.508
							c1.843,0.096,6.244,1.423,5.759,4.027c-0.447,2.4-4.303,2.083-5.996,2.055C177.557,296.573,171.238,297.078,165.025,298.183z"
							/>
					</defs>
					<clipPath id="SVGID_00000130606540546762139260000001462107429671294640_">
						<use xlink:href="#SVGID_1_"  style="overflow:visible;"/>
					</clipPath>
					<g style="clip-path:url(#SVGID_00000130606540546762139260000001462107429671294640_);">
						
							<rect x="172.484" y="286.561" transform="matrix(0.8073 -0.5902 0.5902 0.8073 -147.9341 162.788)" style="fill:#96FCFF;" width="5.599" height="42.682"/>
						
							<rect x="179.562" y="282.549" transform="matrix(0.8073 -0.5901 0.5901 0.8073 -144.503 165.2393)" style="fill:#96FCFF;" width="2.419" height="42.682"/>
						
							<rect x="187.474" y="275.602" transform="matrix(0.8073 -0.5902 0.5902 0.8073 -138.5777 169.5226)" style="fill:#96FCFF;" width="5.599" height="42.682"/>
						
							<rect x="193.927" y="269.677" transform="matrix(0.8073 -0.5902 0.5902 0.8073 -133.5195 173.1665)" style="fill:#96FCFF;" width="8.904" height="42.682"/>
					</g>
				</g>
			</g>
			<g>
				<path style="fill:#CC9856;" d="M376.803,283.033c-1.956-1.203-4.4-1.868-6.589-2.205c-3.995-0.616-8.378-0.338-12.39-0.197
					c-3.236,0.113-6.466,0.458-9.665,1.034c-1.814,0.326-3.698,0.767-5.14,2.087c-0.738,0.676-1.361,1.68-1.276,2.767
					c0.112,1.437,1.375,2.365,2.571,2.757s2.505,0.504,3.518,1.337c0.919,0.755,1.449,1.989,2.237,2.923
					c1.336,1.584,3.293,2.188,5.159,2.656c3.165,0.794,6.401,1.392,9.632,1.141s6.481-1.408,8.979-3.801
					c0.952-0.913,1.812-2.052,2.115-3.443c0.185-0.849,0.162-1.783,0.552-2.533C377.527,285.589,379.424,284.645,376.803,283.033z"
					/>
				<path style="fill:#FFFFFF;" d="M376.803,285.517c-1.956-1.203-4.4-1.868-6.589-2.205c-3.995-0.616-8.378-0.338-12.39-0.197
					c-3.236,0.113-6.466,0.458-9.665,1.034c-1.814,0.326-3.698,0.767-5.14,2.087c-0.738,0.676-1.361,1.68-1.276,2.767
					c0.112,1.437,1.375,2.365,2.571,2.757c1.195,0.392,2.505,0.504,3.518,1.337c0.919,0.756,1.449,1.989,2.237,2.924
					c1.336,1.584,3.293,2.188,5.159,2.656c3.165,0.794,6.401,1.392,9.632,1.141s6.481-1.408,8.979-3.801
					c0.952-0.913,1.812-2.052,2.115-3.443c0.185-0.849,0.162-1.783,0.552-2.533C377.527,288.073,379.424,287.129,376.803,285.517z"
					/>
				<g>
					<defs>
						<path id="SVGID_00000134931951644682513200000014728786059986698124_" d="M376.803,285.517
							c-1.956-1.203-4.4-1.868-6.589-2.205c-3.995-0.616-8.378-0.338-12.39-0.197c-3.236,0.113-6.466,0.458-9.665,1.034
							c-1.814,0.326-3.698,0.767-5.14,2.087c-0.738,0.676-1.361,1.68-1.276,2.767c0.112,1.437,1.375,2.365,2.571,2.757
							c1.195,0.392,2.505,0.504,3.518,1.337c0.919,0.756,1.449,1.989,2.237,2.924c1.336,1.584,3.293,2.188,5.159,2.656
							c3.165,0.794,6.401,1.392,9.632,1.141s6.481-1.408,8.979-3.801c0.952-0.913,1.812-2.052,2.115-3.443
							c0.185-0.849,0.162-1.783,0.552-2.533C377.527,288.073,379.424,287.129,376.803,285.517z"/>
					</defs>
					<clipPath id="SVGID_00000164511710232246012740000014659637383361603459_">
						<use xlink:href="#SVGID_00000134931951644682513200000014728786059986698124_"  style="overflow:visible;"/>
					</clipPath>
					<g style="clip-path:url(#SVGID_00000164511710232246012740000014659637383361603459_);">
						
							<rect x="349.838" y="272.614" transform="matrix(0.8073 -0.5902 0.5902 0.8073 -105.5229 264.7694)" style="fill:#96FCFF;" width="5.599" height="42.682"/>
						
							<rect x="356.915" y="268.602" transform="matrix(0.8073 -0.5902 0.5902 0.8073 -102.0976 267.2303)" style="fill:#96FCFF;" width="2.419" height="42.682"/>
						
							<rect x="364.828" y="261.655" transform="matrix(0.8073 -0.5902 0.5902 0.8073 -96.1664 271.504)" style="fill:#96FCFF;" width="5.599" height="42.682"/>
					</g>
				</g>
			</g>
		</g>
		<g>
			<path style="fill:#3C9699;" d="M135.112,158.128c-7.835,36.111,20.919,71.356,20.919,71.356s24.16-18.247,41.624-41.933
				L135.112,158.128z"/>
			<g>
				<path style="fill:#F44846;" d="M156.031,117.09c-21.591,0-39.094,17.503-39.094,39.094c0,36.779,39.094,73.301,39.094,73.301
					s39.094-36.522,39.094-73.301C195.125,134.593,177.622,117.09,156.031,117.09z"/>
				<path style="fill:#FF706E;" d="M116.937,156.184c0,36.779,39.094,73.301,39.094,73.301V117.09
					C134.44,117.09,116.937,134.593,116.937,156.184z"/>
				
					<ellipse transform="matrix(0.9871 -0.1602 0.1602 0.9871 -23.4569 27.4911)" style="fill:#CC3D3C;" cx="158.788" cy="159.239" rx="19.29" ry="19.29"/>
				
					<ellipse transform="matrix(0.2757 -0.9612 0.9612 0.2757 -37.1463 263.1347)" style="fill:#FFFFFF;" cx="156.031" cy="156.216" rx="19.29" ry="19.29"/>
			</g>
		</g>
		<g>
			<g>
				<g>
					<path style="fill:#0E7476;" d="M352.024,188.803l-0.392-0.479c-0.389-0.474-38.857-47.944-33.331-89.382
						c3.303-24.763,26.135-42.222,50.898-38.919c24.763,3.303,42.222,26.135,38.92,50.898
						c-5.527,41.438-55.091,77.167-55.591,77.523L352.024,188.803z M369.024,61.335c-24.04-3.206-46.205,13.743-49.411,37.782
						c-5.151,38.624,28.606,82.756,32.652,87.88c5.247-3.884,49.391-37.627,54.542-76.251
						C410.013,86.707,393.064,64.541,369.024,61.335z"/>
				</g>
			</g>
			<g>
				<g>
					
						<rect x="347.474" y="144.392" transform="matrix(0.9832 -0.1827 0.1827 0.9832 -24.5261 66.3914)" style="fill:#0E7476;" width="1.323" height="43.882"/>
				</g>
			</g>
			<g>
				<g>
					
						<rect x="339.724" y="167.476" transform="matrix(0.4336 -0.9011 0.9011 0.4336 53.3239 421.1148)" style="fill:#0E7476;" width="43.882" height="1.323"/>
				</g>
			</g>
			<path style="fill:#0E7476;" d="M380.65,161.759c12.197-13.717,24.242-31.653,26.813-50.926
				c3.259-24.44-13.911-46.895-38.351-50.155c-24.44-3.259-46.895,13.911-50.155,38.351c-2.57,19.272,4.354,39.739,12.529,56.173
				L380.65,161.759z"/>
			<path style="fill:#6DFCFF;" d="M372.749,160.706c8.923-14.154,17.921-32.497,20.491-51.769
				c3.26-24.44-7.543-46.046-24.129-48.258c-16.586-2.212-32.673,15.807-35.933,40.248c-2.57,19.272,1.305,39.332,6.207,55.33
				L372.749,160.706z"/>
			<path style="fill:#0E7476;" d="M362.552,159.346c4.697-14.717,9.76-33.585,12.33-52.857c3.26-24.44,0.676-44.95-5.77-45.809
				c-6.446-0.86-14.315,18.256-17.574,42.696c-2.57,19.272-2.63,38.807-1.953,54.241L362.552,159.346z"/>
			<path style="fill:#0E7476;" d="M359.571,200.17l-17.878-2.384c-1.46-0.195-2.486-1.536-2.291-2.996l2.737-20.521l23.165,3.09
				l-2.737,20.521C362.372,199.339,361.031,200.365,359.571,200.17z"/>
		</g>
		<g>
			<g>
				<g>
					<path style="fill:#F2952B;" d="M123.07,375.686l-0.471-0.239c-0.468-0.237-46.918-24.067-56.897-58.365
						c-5.964-20.496,5.859-42.022,26.355-47.985c20.496-5.964,42.022,5.859,47.986,26.355c9.979,34.298-16.434,79.329-16.702,79.78
						L123.07,375.686z M92.372,270.183c-19.897,5.789-31.374,26.687-25.585,46.584c9.302,31.968,50.917,54.816,55.848,57.425
						c2.761-4.847,25.623-46.456,16.321-78.424C133.167,275.871,112.269,264.394,92.372,270.183z"/>
				</g>
			</g>
			<g>
				<g>
					
						<rect x="111.712" y="340.717" transform="matrix(0.8257 -0.5642 0.5642 0.8257 -183.2256 126.0143)" style="fill:#F2952B;" width="1.13" height="37.495"/>
				</g>
			</g>
			<g>
				<g>
					
						<rect x="104.727" y="355.641" transform="matrix(0.0327 -0.9995 0.9995 0.0327 -236.582 467.9555)" style="fill:#F2952B;" width="37.495" height="1.13"/>
				</g>
			</g>
			<path style="fill:#F2952B;" d="M136.114,344.669c4.8-14.931,8.027-33.108,3.385-49.059c-5.886-20.229-27.056-31.856-47.285-25.97
				c-20.229,5.886-31.856,27.056-25.97,47.285c4.641,15.951,17.116,29.56,29.178,39.585L136.114,344.669z"/>
			<path style="fill:#FFFFFF;" d="M129.575,346.572c2.091-14.142,2.794-31.585-1.847-47.537
				c-5.886-20.229-21.786-33.389-35.513-29.395c-13.728,3.994-20.085,23.631-14.199,43.859
				c4.641,15.952,14.593,30.294,23.945,41.107L129.575,346.572z"/>
			<path style="fill:#F2952B;" d="M121.134,349.028c-1.407-13.125-3.96-29.62-8.602-45.572
				c-5.886-20.229-14.983-35.369-20.318-33.816c-5.336,1.552-4.89,19.21,0.996,39.438c4.641,15.951,11.336,31.242,17.191,43.072
				L121.134,349.028z"/>
			<path style="fill:#0E7476;" d="M132.519,382.076l-14.052,4.089c-1.414,0.411-2.894-0.401-3.306-1.816l-4.834-16.613l19.173-5.579
				l4.834,16.613C134.747,380.184,133.934,381.664,132.519,382.076z"/>
		</g>
		<g>
			<rect x="411.398" y="339.994" style="fill:#C77616;" width="13.081" height="28.61"/>
			<polygon style="fill:#9BA54C;" points="431.55,317.581 439.317,317.581 428.165,298.266 436.927,298.266 417.939,265.378 
				398.951,298.266 407.713,298.266 396.561,317.581 404.328,317.581 391.388,339.994 444.49,339.994 			"/>
			<polygon style="fill:#B9C45A;" points="444.49,339.994 431.55,317.581 439.317,317.581 428.165,298.266 436.927,298.266 
				417.939,265.378 417.939,339.994 			"/>
		</g>
		<g>
			<path style="fill:#F2952B;" d="M424.456,389.399c1.152-6.258,7.159-10.398,13.418-9.246l2.705-14.694l-85.085-15.661
				l-2.705,14.694c6.258,1.152,10.398,7.159,9.246,13.418c-1.152,6.258-7.159,10.398-13.418,9.246l-2.705,14.694l85.085,15.661
				l2.705-14.694C427.444,401.664,423.304,395.657,424.456,389.399z"/>
			
				<text transform="matrix(0.9835 0.181 -0.181 0.9835 369.131 384.5828)" style="fill:#FFFFFF; font-family:'Abel-Regular'; font-size:16.5499px;">ОРЁЛ</text>
			<g>
				<g>
					
						<rect x="361.742" y="358.02" transform="matrix(0.1807 -0.9835 0.9835 0.1807 -55.8391 650.0956)" style="fill:#FFFFFF;" width="1.089" height="1.088"/>
				</g>
				<g>
					<path style="fill:#FFFFFF;" d="M427.567,371.134l-2.161-0.398l0.198-1.071l2.161,0.398L427.567,371.134z M423.244,370.338
						l-2.161-0.397l0.197-1.071l2.161,0.397L423.244,370.338z M418.921,369.542l-2.161-0.397l0.197-1.071l2.161,0.397
						L418.921,369.542z M414.598,368.747l-2.162-0.398l0.198-1.071l2.161,0.398L414.598,368.747z M410.275,367.951l-2.162-0.398
						l0.198-1.071l2.161,0.398L410.275,367.951z M405.953,367.155l-2.161-0.397l0.197-1.071l2.161,0.397L405.953,367.155z
						 M401.63,366.359l-2.161-0.397l0.197-1.071l2.161,0.397L401.63,366.359z M397.306,365.565l-2.161-0.398l0.198-1.071
						l2.161,0.398L397.306,365.565z M392.984,364.769l-2.161-0.398l0.198-1.071l2.161,0.398L392.984,364.769z M388.661,363.973
						l-2.161-0.397l0.197-1.071l2.161,0.397L388.661,363.973z M384.338,363.177l-2.161-0.397l0.197-1.071l2.161,0.397
						L384.338,363.177z M380.014,362.382l-2.161-0.398l0.198-1.071l2.161,0.398L380.014,362.382z M375.691,361.586l-2.161-0.398
						l0.198-1.071l2.161,0.398L375.691,361.586z M371.37,360.79l-2.161-0.397l0.197-1.071l2.161,0.397L371.37,360.79z
						 M367.047,359.994l-2.161-0.397l0.197-1.071l2.161,0.397L367.047,359.994z"/>
				</g>
				<g>
					
						<rect x="429.818" y="370.55" transform="matrix(0.1807 -0.9835 0.9835 0.1807 -12.3881 727.3173)" style="fill:#FFFFFF;" width="1.089" height="1.088"/>
				</g>
			</g>
			<g>
				<g>
					
						<rect x="355.307" y="395.895" transform="matrix(0.1807 -0.9835 0.9835 0.1807 -98.3624 674.7971)" style="fill:#FFFFFF;" width="1.089" height="1.088"/>
				</g>
				<g>
					<path style="fill:#FFFFFF;" d="M421.132,409.009l-2.161-0.399l0.198-1.071l2.162,0.398L421.132,409.009z M416.809,408.213
						l-2.161-0.397l0.197-1.071l2.161,0.397L416.809,408.213z M412.486,407.417l-2.161-0.397l0.197-1.071l2.161,0.397
						L412.486,407.417z M408.163,406.622l-2.161-0.398l0.198-1.071l2.161,0.398L408.163,406.622z M403.84,405.826l-2.161-0.398
						l0.198-1.071l2.161,0.398L403.84,405.826z M399.518,405.03l-2.162-0.397l0.197-1.071l2.161,0.397L399.518,405.03z
						 M395.195,404.234l-2.162-0.397l0.197-1.071l2.161,0.397L395.195,404.234z M390.871,403.439l-2.161-0.398l0.198-1.071
						l2.161,0.398L390.871,403.439z M386.548,402.643l-2.161-0.398l0.198-1.071l2.161,0.398L386.548,402.643z M382.226,401.847
						l-2.162-0.398l0.197-1.071l2.161,0.398L382.226,401.847z M377.903,401.051l-2.161-0.397l0.197-1.071l2.161,0.397
						L377.903,401.051z M373.579,400.256l-2.161-0.398l0.198-1.071l2.161,0.398L373.579,400.256z M369.256,399.46l-2.161-0.398
						l0.198-1.071l2.161,0.398L369.256,399.46z M364.934,398.664l-2.161-0.397l0.197-1.071l2.162,0.398L364.934,398.664z
						 M360.611,397.868l-2.161-0.397l0.197-1.071l2.161,0.397L360.611,397.868z"/>
				</g>
				<g>
					
						<rect x="423.383" y="408.425" transform="matrix(0.1807 -0.9835 0.9835 0.1807 -54.9061 752.0261)" style="fill:#FFFFFF;" width="1.089" height="1.088"/>
				</g>
			</g>
		</g>
		<g>
			<path style="fill:#ABFCFF;" d="M419.927,187.473h-15.759c-1.561,0-2.761,1.28-2.79,2.841c-0.028,1.516-1.266,2.737-2.788,2.737
				h-7.617c-1.895,0-3.276,1.584-3.309,3.478c-0.029,1.672-1.399,3.016-3.078,3.008l0,0h-6.733c-1.995,0-3.613,1.618-3.613,3.613
				l0,0c0,1.995,1.618,3.613,3.613,3.613h26.663c2.153,0,3.984-1.724,3.947-3.877c-0.038-2.212,1.743-4.016,3.946-4.016l7.272,0
				c2.976,0,5.634-2.176,5.916-5.139C425.922,190.333,423.258,187.473,419.927,187.473z"/>
			<path style="fill:#ABFCFF;" d="M422.511,215.786H400.73c-1.346,0-2.437,1.091-2.437,2.437c0,1.346,1.091,2.437,2.437,2.437
				h21.781c1.346,0,2.437-1.091,2.437-2.437C424.948,216.877,423.857,215.786,422.511,215.786z"/>
			<path style="fill:#ABFCFF;" d="M67.317,261.908h22.971c3.593,0,6.507-2.913,6.507-6.507l0,0c0-3.594,2.913-6.507,6.507-6.507
				h14.168c5.499,0,9.957-4.458,9.957-9.957l0,0c0-5.499,4.458-9.957,9.957-9.957h0.901c2.794,0,5.059-2.265,5.059-5.059l0,0
				c0-2.794-2.265-5.059-5.059-5.059H99.15c-2.794,0-5.059,2.265-5.059,5.059l0,0c0,2.794,2.265,5.059,5.059,5.059h5.351
				c2.571,0,4.656,2.085,4.656,4.656l0,0c0,2.571-2.084,4.656-4.656,4.656H67.317c-6.521,0-11.807,5.286-11.807,11.807l0,0
				C55.51,256.621,60.796,261.908,67.317,261.908z"/>
			<path style="fill:#ABFCFF;" d="M231.688,187.637h-12.391c-2.587,0-4.684,2.097-4.684,4.684l0,0c0,2.587,2.097,4.684,4.684,4.684
				h0.441c3,0,5.433,2.432,5.433,5.433v0c0,3,2.432,5.433,5.433,5.433h26.783c2.33,0,4.219-1.889,4.219-4.218v0
				c0-2.33-1.889-4.218-4.219-4.218h-13.901c-3.258,0-5.898-2.641-5.898-5.898l0,0C237.586,190.277,234.945,187.637,231.688,187.637
				z"/>
			<path style="fill:#ABFCFF;" d="M112.415,189.507H89.76c-3.486,0-6.313,2.826-6.313,6.313s2.826,6.313,6.313,6.313h22.655
				c3.486,0,6.313-2.826,6.313-6.313S115.902,189.507,112.415,189.507z"/>
			<path style="fill:#ABFCFF;" d="M425.625,202.55c-2.01,0-3.64,1.63-3.64,3.64c0,2.011,1.63,3.64,3.64,3.64
				c2.011,0,3.641-1.63,3.641-3.64C429.265,204.18,427.635,202.55,425.625,202.55z"/>
		</g>
		<g>
			<rect x="255.492" y="352.173" style="fill:#FFFFFF;" width="74.22" height="68.216"/>
			<rect x="260.915" y="357.158" style="fill:#E8FDFF;" width="63.372" height="48.168"/>
			<g>
				<defs>
					
						<rect id="SVGID_00000012434942463863763490000005752272411207150210_" x="260.915" y="357.158" width="63.372" height="48.168"/>
				</defs>
				<clipPath id="SVGID_00000183239702937562412520000007886883929883099312_">
					<use xlink:href="#SVGID_00000012434942463863763490000005752272411207150210_"  style="overflow:visible;"/>
				</clipPath>
				<polygon style="clip-path:url(#SVGID_00000183239702937562412520000007886883929883099312_);fill:#ABFCFF;" points="
					326.989,387.504 301.66,362.175 273.983,389.852 260.081,375.951 260.081,407.985 325.782,407.985 				"/>
				<g style="clip-path:url(#SVGID_00000183239702937562412520000007886883929883099312_);">
					<rect x="309.992" y="396.61" style="fill:#C77616;" width="4.856" height="10.62"/>
					<polygon style="fill:#9BA54C;" points="317.472,388.29 320.355,388.29 316.216,381.12 319.468,381.12 312.42,368.912 
						305.371,381.12 308.624,381.12 304.484,388.29 307.367,388.29 302.564,396.61 322.275,396.61 					"/>
					<polygon style="fill:#B9C45A;" points="322.275,396.61 317.472,388.29 320.355,388.29 316.216,381.12 319.468,381.12 
						312.42,368.912 312.42,396.61 					"/>
				</g>
				<g style="clip-path:url(#SVGID_00000183239702937562412520000007886883929883099312_);">
					<rect x="298.8" y="399.476" style="fill:#C77616;" width="3.704" height="8.102"/>
					<polygon style="fill:#9BA54C;" points="304.506,393.128 306.706,393.128 303.548,387.659 306.029,387.659 300.652,378.345 
						295.275,387.659 297.756,387.659 294.598,393.128 296.797,393.128 293.133,399.476 308.171,399.476 					"/>
					<polygon style="fill:#B9C45A;" points="308.171,399.476 304.506,393.128 306.706,393.128 303.548,387.659 306.029,387.659 
						300.652,378.345 300.652,399.476 					"/>
				</g>
				<polygon style="clip-path:url(#SVGID_00000183239702937562412520000007886883929883099312_);fill:#55BEC1;" points="
					273.983,389.852 281.869,397.738 299.145,372.576 289.167,382.479 301.66,362.175 				"/>
			</g>
		</g>
	</g>
</g>
</svg>
